<?xml version="1.0" encoding="utf-8" standalone="no"?>
<!DOCTYPE svg PUBLIC "-//W3C//DTD SVG 1.1//EN"
  "http://www.w3.org/Graphics/SVG/1.1/DTD/svg11.dtd">
<svg xmlns:xlink="http://www.w3.org/1999/xlink" width="432pt" height="288pt" viewBox="0 0 432 288" xmlns="http://www.w3.org/2000/svg" version="1.1">
 <metadata>
  <rdf:RDF xmlns:dc="http://purl.org/dc/elements/1.1/" xmlns:cc="http://creativecommons.org/ns#" xmlns:rdf="http://www.w3.org/1999/02/22-rdf-syntax-ns#">
   <cc:Work>
    <dc:type rdf:resource="http://purl.org/dc/dcmitype/StillImage"/>
    <dc:date>2024-01-31T00:38:41.955074</dc:date>
    <dc:format>image/svg+xml</dc:format>
    <dc:creator>
     <cc:Agent>
      <dc:title>Matplotlib v3.5.1, https://matplotlib.org/</dc:title>
     </cc:Agent>
    </dc:creator>
   </cc:Work>
  </rdf:RDF>
 </metadata>
 <defs>
  <style type="text/css">*{stroke-linejoin: round; stroke-linecap: butt}</style>
 </defs>
 <g id="figure_1">
  <g id="patch_1">
   <path d="M 0 288 
L 432 288 
L 432 0 
L 0 0 
L 0 288 
z
" style="fill: none"/>
  </g>
  <g id="axes_1">
   <g id="patch_2">
    <path d="M 54 252 
L 388.8 252 
L 388.8 34.56 
L 54 34.56 
z
" style="fill: #ffffff"/>
   </g>
   <g id="patch_3">
    <path d="M 54.190604 252 
L 61.703577 252 
L 61.703577 249.729416 
L 54.190604 249.729416 
z
" clip-path="url(#p4c91db9309)" style="fill: #1f77b4"/>
   </g>
   <g id="patch_4">
    <path d="M 61.703577 252 
L 69.21655 252 
L 69.21655 249.897607 
L 61.703577 249.897607 
z
" clip-path="url(#p4c91db9309)" style="fill: #1f77b4"/>
   </g>
   <g id="patch_5">
    <path d="M 69.21655 252 
L 76.729524 252 
L 76.729524 247.929767 
L 69.21655 247.929767 
z
" clip-path="url(#p4c91db9309)" style="fill: #1f77b4"/>
   </g>
   <g id="patch_6">
    <path d="M 76.729524 252 
L 84.242497 252 
L 84.242497 242.56446 
L 76.729524 242.56446 
z
" clip-path="url(#p4c91db9309)" style="fill: #1f77b4"/>
   </g>
   <g id="patch_7">
    <path d="M 84.242497 252 
L 91.75547 252 
L 91.75547 231.093804 
L 84.242497 231.093804 
z
" clip-path="url(#p4c91db9309)" style="fill: #1f77b4"/>
   </g>
   <g id="patch_8">
    <path d="M 91.75547 252 
L 99.268443 252 
L 99.268443 211.432224 
L 91.75547 211.432224 
z
" clip-path="url(#p4c91db9309)" style="fill: #1f77b4"/>
   </g>
   <g id="patch_9">
    <path d="M 99.268443 252 
L 106.781416 252 
L 106.781416 182.4192 
L 99.268443 182.4192 
z
" clip-path="url(#p4c91db9309)" style="fill: #1f77b4"/>
   </g>
   <g id="patch_10">
    <path d="M 106.781416 252 
L 114.29439 252 
L 114.29439 143.045583 
L 106.781416 143.045583 
z
" clip-path="url(#p4c91db9309)" style="fill: #1f77b4"/>
   </g>
   <g id="patch_11">
    <path d="M 114.29439 252 
L 121.807363 252 
L 121.807363 98.323478 
L 114.29439 98.323478 
z
" clip-path="url(#p4c91db9309)" style="fill: #1f77b4"/>
   </g>
   <g id="patch_12">
    <path d="M 121.807363 252 
L 129.320336 252 
L 129.320336 61.565239 
L 121.807363 61.565239 
z
" clip-path="url(#p4c91db9309)" style="fill: #1f77b4"/>
   </g>
   <g id="patch_13">
    <path d="M 129.320336 252 
L 136.833309 252 
L 136.833309 50.784167 
L 129.320336 50.784167 
z
" clip-path="url(#p4c91db9309)" style="fill: #1f77b4"/>
   </g>
   <g id="patch_14">
    <path d="M 136.833309 252 
L 144.346283 252 
L 144.346283 44.914286 
L 136.833309 44.914286 
z
" clip-path="url(#p4c91db9309)" style="fill: #1f77b4"/>
   </g>
   <g id="patch_15">
    <path d="M 144.346283 252 
L 151.859256 252 
L 151.859256 77.963904 
L 144.346283 77.963904 
z
" clip-path="url(#p4c91db9309)" style="fill: #1f77b4"/>
   </g>
   <g id="patch_16">
    <path d="M 151.859256 252 
L 159.372229 252 
L 159.372229 117.55617 
L 151.859256 117.55617 
z
" clip-path="url(#p4c91db9309)" style="fill: #1f77b4"/>
   </g>
   <g id="patch_17">
    <path d="M 159.372229 252 
L 166.885202 252 
L 166.885202 148.772502 
L 159.372229 148.772502 
z
" clip-path="url(#p4c91db9309)" style="fill: #1f77b4"/>
   </g>
   <g id="patch_18">
    <path d="M 166.885202 252 
L 174.398175 252 
L 174.398175 177.280951 
L 166.885202 177.280951 
z
" clip-path="url(#p4c91db9309)" style="fill: #1f77b4"/>
   </g>
   <g id="patch_19">
    <path d="M 174.398175 252 
L 181.911149 252 
L 181.911149 196.665015 
L 174.398175 196.665015 
z
" clip-path="url(#p4c91db9309)" style="fill: #1f77b4"/>
   </g>
   <g id="patch_20">
    <path d="M 181.911149 252 
L 189.424122 252 
L 189.424122 211.583596 
L 181.911149 211.583596 
z
" clip-path="url(#p4c91db9309)" style="fill: #1f77b4"/>
   </g>
   <g id="patch_21">
    <path d="M 189.424122 252 
L 196.937095 252 
L 196.937095 223.769066 
L 189.424122 223.769066 
z
" clip-path="url(#p4c91db9309)" style="fill: #1f77b4"/>
   </g>
   <g id="patch_22">
    <path d="M 196.937095 252 
L 204.450068 252 
L 204.450068 228.091586 
L 196.937095 228.091586 
z
" clip-path="url(#p4c91db9309)" style="fill: #1f77b4"/>
   </g>
   <g id="patch_23">
    <path d="M 204.450068 252 
L 211.963041 252 
L 211.963041 237.24961 
L 204.450068 237.24961 
z
" clip-path="url(#p4c91db9309)" style="fill: #1f77b4"/>
   </g>
   <g id="patch_24">
    <path d="M 211.963041 252 
L 219.476015 252 
L 219.476015 240.756402 
L 211.963041 240.756402 
z
" clip-path="url(#p4c91db9309)" style="fill: #1f77b4"/>
   </g>
   <g id="patch_25">
    <path d="M 219.476015 252 
L 226.988988 252 
L 226.988988 241.412349 
L 219.476015 241.412349 
z
" clip-path="url(#p4c91db9309)" style="fill: #1f77b4"/>
   </g>
   <g id="patch_26">
    <path d="M 226.988988 252 
L 234.501961 252 
L 234.501961 244.700491 
L 226.988988 244.700491 
z
" clip-path="url(#p4c91db9309)" style="fill: #1f77b4"/>
   </g>
   <g id="patch_27">
    <path d="M 234.501961 252 
L 242.014934 252 
L 242.014934 246.180576 
L 234.501961 246.180576 
z
" clip-path="url(#p4c91db9309)" style="fill: #1f77b4"/>
   </g>
   <g id="patch_28">
    <path d="M 242.014934 252 
L 249.527907 252 
L 249.527907 247.021533 
L 242.014934 247.021533 
z
" clip-path="url(#p4c91db9309)" style="fill: #1f77b4"/>
   </g>
   <g id="patch_29">
    <path d="M 249.527907 252 
L 257.040881 252 
L 257.040881 249.334166 
L 249.527907 249.334166 
z
" clip-path="url(#p4c91db9309)" style="fill: #1f77b4"/>
   </g>
   <g id="patch_30">
    <path d="M 257.040881 252 
L 264.553854 252 
L 264.553854 249.090288 
L 257.040881 249.090288 
z
" clip-path="url(#p4c91db9309)" style="fill: #1f77b4"/>
   </g>
   <g id="patch_31">
    <path d="M 264.553854 252 
L 272.066827 252 
L 272.066827 249.805102 
L 264.553854 249.805102 
z
" clip-path="url(#p4c91db9309)" style="fill: #1f77b4"/>
   </g>
   <g id="patch_32">
    <path d="M 272.066827 252 
L 279.5798 252 
L 279.5798 249.763054 
L 272.066827 249.763054 
z
" clip-path="url(#p4c91db9309)" style="fill: #1f77b4"/>
   </g>
   <g id="patch_33">
    <path d="M 279.5798 252 
L 287.092774 252 
L 287.092774 250.461048 
L 279.5798 250.461048 
z
" clip-path="url(#p4c91db9309)" style="fill: #1f77b4"/>
   </g>
   <g id="patch_34">
    <path d="M 287.092774 252 
L 294.605747 252 
L 294.605747 250.999261 
L 287.092774 250.999261 
z
" clip-path="url(#p4c91db9309)" style="fill: #1f77b4"/>
   </g>
   <g id="patch_35">
    <path d="M 294.605747 252 
L 302.11872 252 
L 302.11872 251.377692 
L 294.605747 251.377692 
z
" clip-path="url(#p4c91db9309)" style="fill: #1f77b4"/>
   </g>
   <g id="patch_36">
    <path d="M 302.11872 252 
L 309.631693 252 
L 309.631693 250.570373 
L 302.11872 250.570373 
z
" clip-path="url(#p4c91db9309)" style="fill: #1f77b4"/>
   </g>
   <g id="patch_37">
    <path d="M 309.631693 252 
L 317.144666 252 
L 317.144666 251.00767 
L 309.631693 251.00767 
z
" clip-path="url(#p4c91db9309)" style="fill: #1f77b4"/>
   </g>
   <g id="patch_38">
    <path d="M 317.144666 252 
L 324.65764 252 
L 324.65764 251.629979 
L 317.144666 251.629979 
z
" clip-path="url(#p4c91db9309)" style="fill: #1f77b4"/>
   </g>
   <g id="patch_39">
    <path d="M 324.65764 252 
L 332.170613 252 
L 332.170613 251.41133 
L 324.65764 251.41133 
z
" clip-path="url(#p4c91db9309)" style="fill: #1f77b4"/>
   </g>
   <g id="patch_40">
    <path d="M 332.170613 252 
L 339.683586 252 
L 339.683586 251.772942 
L 332.170613 251.772942 
z
" clip-path="url(#p4c91db9309)" style="fill: #1f77b4"/>
   </g>
   <g id="patch_41">
    <path d="M 339.683586 252 
L 347.196559 252 
L 347.196559 251.344053 
L 339.683586 251.344053 
z
" clip-path="url(#p4c91db9309)" style="fill: #1f77b4"/>
   </g>
   <g id="patch_42">
    <path d="M 347.196559 252 
L 354.709532 252 
L 354.709532 251.873856 
L 347.196559 251.873856 
z
" clip-path="url(#p4c91db9309)" style="fill: #1f77b4"/>
   </g>
   <g id="patch_43">
    <path d="M 354.709532 252 
L 362.222506 252 
L 362.222506 251.672027 
L 354.709532 251.672027 
z
" clip-path="url(#p4c91db9309)" style="fill: #1f77b4"/>
   </g>
   <g id="patch_44">
    <path d="M 362.222506 252 
L 369.735479 252 
L 369.735479 251.756122 
L 362.222506 251.756122 
z
" clip-path="url(#p4c91db9309)" style="fill: #1f77b4"/>
   </g>
   <g id="patch_45">
    <path d="M 369.735479 252 
L 377.248452 252 
L 377.248452 251.756122 
L 369.735479 251.756122 
z
" clip-path="url(#p4c91db9309)" style="fill: #1f77b4"/>
   </g>
   <g id="patch_46">
    <path d="M 377.248452 252 
L 384.761425 252 
L 384.761425 251.974771 
L 377.248452 251.974771 
z
" clip-path="url(#p4c91db9309)" style="fill: #1f77b4"/>
   </g>
   <g id="patch_47">
    <path d="M 384.761425 252 
L 392.274399 252 
L 392.274399 251.882266 
L 384.761425 251.882266 
z
" clip-path="url(#p4c91db9309)" style="fill: #1f77b4"/>
   </g>
   <g id="patch_48">
    <path d="M 392.274399 252 
L 399.787372 252 
L 399.787372 251.974771 
L 392.274399 251.974771 
z
" clip-path="url(#p4c91db9309)" style="fill: #1f77b4"/>
   </g>
   <g id="patch_49">
    <path d="M 399.787372 252 
L 407.300345 252 
L 407.300345 251.722484 
L 399.787372 251.722484 
z
" clip-path="url(#p4c91db9309)" style="fill: #1f77b4"/>
   </g>
   <g id="patch_50">
    <path d="M 407.300345 252 
L 414.813318 252 
L 414.813318 251.966362 
L 407.300345 251.966362 
z
" clip-path="url(#p4c91db9309)" style="fill: #1f77b4"/>
   </g>
   <g id="patch_51">
    <path d="M 414.813318 252 
L 422.326291 252 
L 422.326291 251.857037 
L 414.813318 251.857037 
z
" clip-path="url(#p4c91db9309)" style="fill: #1f77b4"/>
   </g>
   <g id="patch_52">
    <path d="M 422.326291 252 
L 429.839265 252 
L 429.839265 251.915904 
L 422.326291 251.915904 
z
" clip-path="url(#p4c91db9309)" style="fill: #1f77b4"/>
   </g>
   <g id="patch_53">
    <path d="M 429.839265 252 
L 437.352238 252 
L 437.352238 251.983181 
L 429.839265 251.983181 
z
" clip-path="url(#p4c91db9309)" style="fill: #1f77b4"/>
   </g>
   <g id="patch_54">
    <path d="M 437.352238 252 
L 444.865211 252 
L 444.865211 251.840218 
L 437.352238 251.840218 
z
" clip-path="url(#p4c91db9309)" style="fill: #1f77b4"/>
   </g>
   <g id="patch_55">
    <path d="M 444.865211 252 
L 452.378184 252 
L 452.378184 251.99159 
L 444.865211 251.99159 
z
" clip-path="url(#p4c91db9309)" style="fill: #1f77b4"/>
   </g>
   <g id="patch_56">
    <path d="M 452.378184 252 
L 459.891157 252 
L 459.891157 251.907495 
L 452.378184 251.907495 
z
" clip-path="url(#p4c91db9309)" style="fill: #1f77b4"/>
   </g>
   <g id="patch_57">
    <path d="M 459.891157 252 
L 467.404131 252 
L 467.404131 251.99159 
L 459.891157 251.99159 
z
" clip-path="url(#p4c91db9309)" style="fill: #1f77b4"/>
   </g>
   <g id="patch_58">
    <path d="M 467.404131 252 
L 474.917104 252 
L 474.917104 251.941133 
L 467.404131 251.941133 
z
" clip-path="url(#p4c91db9309)" style="fill: #1f77b4"/>
   </g>
   <g id="patch_59">
    <path d="M 474.917104 252 
L 482.430077 252 
L 482.430077 252 
L 474.917104 252 
z
" clip-path="url(#p4c91db9309)" style="fill: #1f77b4"/>
   </g>
   <g id="patch_60">
    <path d="M 482.430077 252 
L 489.94305 252 
L 489.94305 251.974771 
L 482.430077 251.974771 
z
" clip-path="url(#p4c91db9309)" style="fill: #1f77b4"/>
   </g>
   <g id="patch_61">
    <path d="M 489.94305 252 
L 497.456024 252 
L 497.456024 251.907495 
L 489.94305 251.907495 
z
" clip-path="url(#p4c91db9309)" style="fill: #1f77b4"/>
   </g>
   <g id="patch_62">
    <path d="M 497.456024 252 
L 504.968997 252 
L 504.968997 251.974771 
L 497.456024 251.974771 
z
" clip-path="url(#p4c91db9309)" style="fill: #1f77b4"/>
   </g>
   <g id="patch_63">
    <path d="M 504.968997 252 
L 512.48197 252 
L 512.48197 252 
L 504.968997 252 
z
" clip-path="url(#p4c91db9309)" style="fill: #1f77b4"/>
   </g>
   <g id="patch_64">
    <path d="M 512.48197 252 
L 519.994943 252 
L 519.994943 251.949543 
L 512.48197 251.949543 
z
" clip-path="url(#p4c91db9309)" style="fill: #1f77b4"/>
   </g>
   <g id="patch_65">
    <path d="M 519.994943 252 
L 527.507916 252 
L 527.507916 251.99159 
L 519.994943 251.99159 
z
" clip-path="url(#p4c91db9309)" style="fill: #1f77b4"/>
   </g>
   <g id="patch_66">
    <path d="M 527.507916 252 
L 535.02089 252 
L 535.02089 251.957952 
L 527.507916 251.957952 
z
" clip-path="url(#p4c91db9309)" style="fill: #1f77b4"/>
   </g>
   <g id="patch_67">
    <path d="M 535.02089 252 
L 542.533863 252 
L 542.533863 252 
L 535.02089 252 
z
" clip-path="url(#p4c91db9309)" style="fill: #1f77b4"/>
   </g>
   <g id="patch_68">
    <path d="M 542.533863 252 
L 550.046836 252 
L 550.046836 252 
L 542.533863 252 
z
" clip-path="url(#p4c91db9309)" style="fill: #1f77b4"/>
   </g>
   <g id="patch_69">
    <path d="M 550.046836 252 
L 557.559809 252 
L 557.559809 251.949543 
L 550.046836 251.949543 
z
" clip-path="url(#p4c91db9309)" style="fill: #1f77b4"/>
   </g>
   <g id="patch_70">
    <path d="M 557.559809 252 
L 565.072782 252 
L 565.072782 252 
L 557.559809 252 
z
" clip-path="url(#p4c91db9309)" style="fill: #1f77b4"/>
   </g>
   <g id="patch_71">
    <path d="M 565.072782 252 
L 572.585756 252 
L 572.585756 252 
L 565.072782 252 
z
" clip-path="url(#p4c91db9309)" style="fill: #1f77b4"/>
   </g>
   <g id="patch_72">
    <path d="M 572.585756 252 
L 580.098729 252 
L 580.098729 251.966362 
L 572.585756 251.966362 
z
" clip-path="url(#p4c91db9309)" style="fill: #1f77b4"/>
   </g>
   <g id="patch_73">
    <path d="M 580.098729 252 
L 587.611702 252 
L 587.611702 252 
L 580.098729 252 
z
" clip-path="url(#p4c91db9309)" style="fill: #1f77b4"/>
   </g>
   <g id="patch_74">
    <path d="M 587.611702 252 
L 595.124675 252 
L 595.124675 252 
L 587.611702 252 
z
" clip-path="url(#p4c91db9309)" style="fill: #1f77b4"/>
   </g>
   <g id="patch_75">
    <path d="M 595.124675 252 
L 602.637648 252 
L 602.637648 251.99159 
L 595.124675 251.99159 
z
" clip-path="url(#p4c91db9309)" style="fill: #1f77b4"/>
   </g>
   <g id="patch_76">
    <path d="M 602.637648 252 
L 610.150622 252 
L 610.150622 252 
L 602.637648 252 
z
" clip-path="url(#p4c91db9309)" style="fill: #1f77b4"/>
   </g>
   <g id="patch_77">
    <path d="M 610.150622 252 
L 617.663595 252 
L 617.663595 251.983181 
L 610.150622 251.983181 
z
" clip-path="url(#p4c91db9309)" style="fill: #1f77b4"/>
   </g>
   <g id="patch_78">
    <path d="M 617.663595 252 
L 625.176568 252 
L 625.176568 252 
L 617.663595 252 
z
" clip-path="url(#p4c91db9309)" style="fill: #1f77b4"/>
   </g>
   <g id="patch_79">
    <path d="M 625.176568 252 
L 632.689541 252 
L 632.689541 252 
L 625.176568 252 
z
" clip-path="url(#p4c91db9309)" style="fill: #1f77b4"/>
   </g>
   <g id="patch_80">
    <path d="M 632.689541 252 
L 640.202515 252 
L 640.202515 251.966362 
L 632.689541 251.966362 
z
" clip-path="url(#p4c91db9309)" style="fill: #1f77b4"/>
   </g>
   <g id="patch_81">
    <path d="M 640.202515 252 
L 647.715488 252 
L 647.715488 252 
L 640.202515 252 
z
" clip-path="url(#p4c91db9309)" style="fill: #1f77b4"/>
   </g>
   <g id="patch_82">
    <path d="M 647.715488 252 
L 655.228461 252 
L 655.228461 252 
L 647.715488 252 
z
" clip-path="url(#p4c91db9309)" style="fill: #1f77b4"/>
   </g>
   <g id="patch_83">
    <path d="M 655.228461 252 
L 662.741434 252 
L 662.741434 252 
L 655.228461 252 
z
" clip-path="url(#p4c91db9309)" style="fill: #1f77b4"/>
   </g>
   <g id="patch_84">
    <path d="M 662.741434 252 
L 670.254407 252 
L 670.254407 251.949543 
L 662.741434 251.949543 
z
" clip-path="url(#p4c91db9309)" style="fill: #1f77b4"/>
   </g>
   <g id="patch_85">
    <path d="M 670.254407 252 
L 677.767381 252 
L 677.767381 252 
L 670.254407 252 
z
" clip-path="url(#p4c91db9309)" style="fill: #1f77b4"/>
   </g>
   <g id="patch_86">
    <path d="M 677.767381 252 
L 685.280354 252 
L 685.280354 252 
L 677.767381 252 
z
" clip-path="url(#p4c91db9309)" style="fill: #1f77b4"/>
   </g>
   <g id="patch_87">
    <path d="M 685.280354 252 
L 692.793327 252 
L 692.793327 252 
L 685.280354 252 
z
" clip-path="url(#p4c91db9309)" style="fill: #1f77b4"/>
   </g>
   <g id="patch_88">
    <path d="M 692.793327 252 
L 700.3063 252 
L 700.3063 251.99159 
L 692.793327 251.99159 
z
" clip-path="url(#p4c91db9309)" style="fill: #1f77b4"/>
   </g>
   <g id="patch_89">
    <path d="M 700.3063 252 
L 707.819273 252 
L 707.819273 252 
L 700.3063 252 
z
" clip-path="url(#p4c91db9309)" style="fill: #1f77b4"/>
   </g>
   <g id="patch_90">
    <path d="M 707.819273 252 
L 715.332247 252 
L 715.332247 252 
L 707.819273 252 
z
" clip-path="url(#p4c91db9309)" style="fill: #1f77b4"/>
   </g>
   <g id="patch_91">
    <path d="M 715.332247 252 
L 722.84522 252 
L 722.84522 251.983181 
L 715.332247 251.983181 
z
" clip-path="url(#p4c91db9309)" style="fill: #1f77b4"/>
   </g>
   <g id="patch_92">
    <path d="M 722.84522 252 
L 730.358193 252 
L 730.358193 252 
L 722.84522 252 
z
" clip-path="url(#p4c91db9309)" style="fill: #1f77b4"/>
   </g>
   <g id="patch_93">
    <path d="M 730.358193 252 
L 737.871166 252 
L 737.871166 252 
L 730.358193 252 
z
" clip-path="url(#p4c91db9309)" style="fill: #1f77b4"/>
   </g>
   <g id="patch_94">
    <path d="M 737.871166 252 
L 745.38414 252 
L 745.38414 252 
L 737.871166 252 
z
" clip-path="url(#p4c91db9309)" style="fill: #1f77b4"/>
   </g>
   <g id="patch_95">
    <path d="M 745.38414 252 
L 752.897113 252 
L 752.897113 251.99159 
L 745.38414 251.99159 
z
" clip-path="url(#p4c91db9309)" style="fill: #1f77b4"/>
   </g>
   <g id="patch_96">
    <path d="M 752.897113 252 
L 760.410086 252 
L 760.410086 252 
L 752.897113 252 
z
" clip-path="url(#p4c91db9309)" style="fill: #1f77b4"/>
   </g>
   <g id="patch_97">
    <path d="M 760.410086 252 
L 767.923059 252 
L 767.923059 252 
L 760.410086 252 
z
" clip-path="url(#p4c91db9309)" style="fill: #1f77b4"/>
   </g>
   <g id="patch_98">
    <path d="M 767.923059 252 
L 775.436032 252 
L 775.436032 252 
L 767.923059 252 
z
" clip-path="url(#p4c91db9309)" style="fill: #1f77b4"/>
   </g>
   <g id="patch_99">
    <path d="M 775.436032 252 
L 782.949006 252 
L 782.949006 252 
L 775.436032 252 
z
" clip-path="url(#p4c91db9309)" style="fill: #1f77b4"/>
   </g>
   <g id="patch_100">
    <path d="M 782.949006 252 
L 790.461979 252 
L 790.461979 252 
L 782.949006 252 
z
" clip-path="url(#p4c91db9309)" style="fill: #1f77b4"/>
   </g>
   <g id="patch_101">
    <path d="M 790.461979 252 
L 797.974952 252 
L 797.974952 252 
L 790.461979 252 
z
" clip-path="url(#p4c91db9309)" style="fill: #1f77b4"/>
   </g>
   <g id="patch_102">
    <path d="M 797.974952 252 
L 805.487925 252 
L 805.487925 252 
L 797.974952 252 
z
" clip-path="url(#p4c91db9309)" style="fill: #1f77b4"/>
   </g>
   <g id="patch_103">
    <path d="M 805.487925 252 
L 813.000898 252 
L 813.000898 252 
L 805.487925 252 
z
" clip-path="url(#p4c91db9309)" style="fill: #1f77b4"/>
   </g>
   <g id="patch_104">
    <path d="M 813.000898 252 
L 820.513872 252 
L 820.513872 252 
L 813.000898 252 
z
" clip-path="url(#p4c91db9309)" style="fill: #1f77b4"/>
   </g>
   <g id="patch_105">
    <path d="M 820.513872 252 
L 828.026845 252 
L 828.026845 252 
L 820.513872 252 
z
" clip-path="url(#p4c91db9309)" style="fill: #1f77b4"/>
   </g>
   <g id="patch_106">
    <path d="M 828.026845 252 
L 835.539818 252 
L 835.539818 252 
L 828.026845 252 
z
" clip-path="url(#p4c91db9309)" style="fill: #1f77b4"/>
   </g>
   <g id="patch_107">
    <path d="M 835.539818 252 
L 843.052791 252 
L 843.052791 252 
L 835.539818 252 
z
" clip-path="url(#p4c91db9309)" style="fill: #1f77b4"/>
   </g>
   <g id="patch_108">
    <path d="M 843.052791 252 
L 850.565764 252 
L 850.565764 252 
L 843.052791 252 
z
" clip-path="url(#p4c91db9309)" style="fill: #1f77b4"/>
   </g>
   <g id="patch_109">
    <path d="M 850.565764 252 
L 858.078738 252 
L 858.078738 252 
L 850.565764 252 
z
" clip-path="url(#p4c91db9309)" style="fill: #1f77b4"/>
   </g>
   <g id="patch_110">
    <path d="M 858.078738 252 
L 865.591711 252 
L 865.591711 252 
L 858.078738 252 
z
" clip-path="url(#p4c91db9309)" style="fill: #1f77b4"/>
   </g>
   <g id="patch_111">
    <path d="M 865.591711 252 
L 873.104684 252 
L 873.104684 252 
L 865.591711 252 
z
" clip-path="url(#p4c91db9309)" style="fill: #1f77b4"/>
   </g>
   <g id="patch_112">
    <path d="M 873.104684 252 
L 880.617657 252 
L 880.617657 252 
L 873.104684 252 
z
" clip-path="url(#p4c91db9309)" style="fill: #1f77b4"/>
   </g>
   <g id="patch_113">
    <path d="M 880.617657 252 
L 888.130631 252 
L 888.130631 252 
L 880.617657 252 
z
" clip-path="url(#p4c91db9309)" style="fill: #1f77b4"/>
   </g>
   <g id="patch_114">
    <path d="M 888.130631 252 
L 895.643604 252 
L 895.643604 252 
L 888.130631 252 
z
" clip-path="url(#p4c91db9309)" style="fill: #1f77b4"/>
   </g>
   <g id="patch_115">
    <path d="M 895.643604 252 
L 903.156577 252 
L 903.156577 252 
L 895.643604 252 
z
" clip-path="url(#p4c91db9309)" style="fill: #1f77b4"/>
   </g>
   <g id="patch_116">
    <path d="M 903.156577 252 
L 910.66955 252 
L 910.66955 252 
L 903.156577 252 
z
" clip-path="url(#p4c91db9309)" style="fill: #1f77b4"/>
   </g>
   <g id="patch_117">
    <path d="M 910.66955 252 
L 918.182523 252 
L 918.182523 251.99159 
L 910.66955 251.99159 
z
" clip-path="url(#p4c91db9309)" style="fill: #1f77b4"/>
   </g>
   <g id="patch_118">
    <path d="M 918.182523 252 
L 925.695497 252 
L 925.695497 252 
L 918.182523 252 
z
" clip-path="url(#p4c91db9309)" style="fill: #1f77b4"/>
   </g>
   <g id="patch_119">
    <path d="M 925.695497 252 
L 933.20847 252 
L 933.20847 251.99159 
L 925.695497 251.99159 
z
" clip-path="url(#p4c91db9309)" style="fill: #1f77b4"/>
   </g>
   <g id="patch_120">
    <path d="M 933.20847 252 
L 940.721443 252 
L 940.721443 252 
L 933.20847 252 
z
" clip-path="url(#p4c91db9309)" style="fill: #1f77b4"/>
   </g>
   <g id="patch_121">
    <path d="M 940.721443 252 
L 948.234416 252 
L 948.234416 252 
L 940.721443 252 
z
" clip-path="url(#p4c91db9309)" style="fill: #1f77b4"/>
   </g>
   <g id="patch_122">
    <path d="M 948.234416 252 
L 955.747389 252 
L 955.747389 252 
L 948.234416 252 
z
" clip-path="url(#p4c91db9309)" style="fill: #1f77b4"/>
   </g>
   <g id="patch_123">
    <path d="M 955.747389 252 
L 963.260363 252 
L 963.260363 252 
L 955.747389 252 
z
" clip-path="url(#p4c91db9309)" style="fill: #1f77b4"/>
   </g>
   <g id="patch_124">
    <path d="M 963.260363 252 
L 970.773336 252 
L 970.773336 252 
L 963.260363 252 
z
" clip-path="url(#p4c91db9309)" style="fill: #1f77b4"/>
   </g>
   <g id="patch_125">
    <path d="M 970.773336 252 
L 978.286309 252 
L 978.286309 252 
L 970.773336 252 
z
" clip-path="url(#p4c91db9309)" style="fill: #1f77b4"/>
   </g>
   <g id="patch_126">
    <path d="M 978.286309 252 
L 985.799282 252 
L 985.799282 252 
L 978.286309 252 
z
" clip-path="url(#p4c91db9309)" style="fill: #1f77b4"/>
   </g>
   <g id="patch_127">
    <path d="M 985.799282 252 
L 993.312256 252 
L 993.312256 252 
L 985.799282 252 
z
" clip-path="url(#p4c91db9309)" style="fill: #1f77b4"/>
   </g>
   <g id="patch_128">
    <path d="M 993.312256 252 
L 1000.825229 252 
L 1000.825229 252 
L 993.312256 252 
z
" clip-path="url(#p4c91db9309)" style="fill: #1f77b4"/>
   </g>
   <g id="patch_129">
    <path d="M 1000.825229 252 
L 1008.338202 252 
L 1008.338202 252 
L 1000.825229 252 
z
" clip-path="url(#p4c91db9309)" style="fill: #1f77b4"/>
   </g>
   <g id="patch_130">
    <path d="M 1008.338202 252 
L 1015.851175 252 
L 1015.851175 251.99159 
L 1008.338202 251.99159 
z
" clip-path="url(#p4c91db9309)" style="fill: #1f77b4"/>
   </g>
   <g id="patch_131">
    <path d="M 1015.851175 252 
L 1023.364148 252 
L 1023.364148 252 
L 1015.851175 252 
z
" clip-path="url(#p4c91db9309)" style="fill: #1f77b4"/>
   </g>
   <g id="patch_132">
    <path d="M 1023.364148 252 
L 1030.877122 252 
L 1030.877122 252 
L 1023.364148 252 
z
" clip-path="url(#p4c91db9309)" style="fill: #1f77b4"/>
   </g>
   <g id="patch_133">
    <path d="M 1030.877122 252 
L 1038.390095 252 
L 1038.390095 252 
L 1030.877122 252 
z
" clip-path="url(#p4c91db9309)" style="fill: #1f77b4"/>
   </g>
   <g id="patch_134">
    <path d="M 1038.390095 252 
L 1045.903068 252 
L 1045.903068 252 
L 1038.390095 252 
z
" clip-path="url(#p4c91db9309)" style="fill: #1f77b4"/>
   </g>
   <g id="patch_135">
    <path d="M 1045.903068 252 
L 1053.416041 252 
L 1053.416041 252 
L 1045.903068 252 
z
" clip-path="url(#p4c91db9309)" style="fill: #1f77b4"/>
   </g>
   <g id="patch_136">
    <path d="M 1053.416041 252 
L 1060.929014 252 
L 1060.929014 252 
L 1053.416041 252 
z
" clip-path="url(#p4c91db9309)" style="fill: #1f77b4"/>
   </g>
   <g id="patch_137">
    <path d="M 1060.929014 252 
L 1068.441988 252 
L 1068.441988 252 
L 1060.929014 252 
z
" clip-path="url(#p4c91db9309)" style="fill: #1f77b4"/>
   </g>
   <g id="patch_138">
    <path d="M 1068.441988 252 
L 1075.954961 252 
L 1075.954961 252 
L 1068.441988 252 
z
" clip-path="url(#p4c91db9309)" style="fill: #1f77b4"/>
   </g>
   <g id="patch_139">
    <path d="M 1075.954961 252 
L 1083.467934 252 
L 1083.467934 252 
L 1075.954961 252 
z
" clip-path="url(#p4c91db9309)" style="fill: #1f77b4"/>
   </g>
   <g id="patch_140">
    <path d="M 1083.467934 252 
L 1090.980907 252 
L 1090.980907 252 
L 1083.467934 252 
z
" clip-path="url(#p4c91db9309)" style="fill: #1f77b4"/>
   </g>
   <g id="patch_141">
    <path d="M 1090.980907 252 
L 1098.49388 252 
L 1098.49388 252 
L 1090.980907 252 
z
" clip-path="url(#p4c91db9309)" style="fill: #1f77b4"/>
   </g>
   <g id="patch_142">
    <path d="M 1098.49388 252 
L 1106.006854 252 
L 1106.006854 252 
L 1098.49388 252 
z
" clip-path="url(#p4c91db9309)" style="fill: #1f77b4"/>
   </g>
   <g id="patch_143">
    <path d="M 1106.006854 252 
L 1113.519827 252 
L 1113.519827 252 
L 1106.006854 252 
z
" clip-path="url(#p4c91db9309)" style="fill: #1f77b4"/>
   </g>
   <g id="patch_144">
    <path d="M 1113.519827 252 
L 1121.0328 252 
L 1121.0328 252 
L 1113.519827 252 
z
" clip-path="url(#p4c91db9309)" style="fill: #1f77b4"/>
   </g>
   <g id="patch_145">
    <path d="M 1121.0328 252 
L 1128.545773 252 
L 1128.545773 252 
L 1121.0328 252 
z
" clip-path="url(#p4c91db9309)" style="fill: #1f77b4"/>
   </g>
   <g id="patch_146">
    <path d="M 1128.545773 252 
L 1136.058747 252 
L 1136.058747 252 
L 1128.545773 252 
z
" clip-path="url(#p4c91db9309)" style="fill: #1f77b4"/>
   </g>
   <g id="patch_147">
    <path d="M 1136.058747 252 
L 1143.57172 252 
L 1143.57172 252 
L 1136.058747 252 
z
" clip-path="url(#p4c91db9309)" style="fill: #1f77b4"/>
   </g>
   <g id="patch_148">
    <path d="M 1143.57172 252 
L 1151.084693 252 
L 1151.084693 252 
L 1143.57172 252 
z
" clip-path="url(#p4c91db9309)" style="fill: #1f77b4"/>
   </g>
   <g id="patch_149">
    <path d="M 1151.084693 252 
L 1158.597666 252 
L 1158.597666 252 
L 1151.084693 252 
z
" clip-path="url(#p4c91db9309)" style="fill: #1f77b4"/>
   </g>
   <g id="patch_150">
    <path d="M 1158.597666 252 
L 1166.110639 252 
L 1166.110639 252 
L 1158.597666 252 
z
" clip-path="url(#p4c91db9309)" style="fill: #1f77b4"/>
   </g>
   <g id="patch_151">
    <path d="M 1166.110639 252 
L 1173.623613 252 
L 1173.623613 252 
L 1166.110639 252 
z
" clip-path="url(#p4c91db9309)" style="fill: #1f77b4"/>
   </g>
   <g id="patch_152">
    <path d="M 1173.623613 252 
L 1181.136586 252 
L 1181.136586 251.99159 
L 1173.623613 251.99159 
z
" clip-path="url(#p4c91db9309)" style="fill: #1f77b4"/>
   </g>
   <g id="patch_153">
    <path d="M 1181.136586 252 
L 1188.649559 252 
L 1188.649559 252 
L 1181.136586 252 
z
" clip-path="url(#p4c91db9309)" style="fill: #1f77b4"/>
   </g>
   <g id="patch_154">
    <path d="M 1188.649559 252 
L 1196.162532 252 
L 1196.162532 252 
L 1188.649559 252 
z
" clip-path="url(#p4c91db9309)" style="fill: #1f77b4"/>
   </g>
   <g id="patch_155">
    <path d="M 1196.162532 252 
L 1203.675505 252 
L 1203.675505 252 
L 1196.162532 252 
z
" clip-path="url(#p4c91db9309)" style="fill: #1f77b4"/>
   </g>
   <g id="patch_156">
    <path d="M 1203.675505 252 
L 1211.188479 252 
L 1211.188479 252 
L 1203.675505 252 
z
" clip-path="url(#p4c91db9309)" style="fill: #1f77b4"/>
   </g>
   <g id="patch_157">
    <path d="M 1211.188479 252 
L 1218.701452 252 
L 1218.701452 252 
L 1211.188479 252 
z
" clip-path="url(#p4c91db9309)" style="fill: #1f77b4"/>
   </g>
   <g id="patch_158">
    <path d="M 1218.701452 252 
L 1226.214425 252 
L 1226.214425 252 
L 1218.701452 252 
z
" clip-path="url(#p4c91db9309)" style="fill: #1f77b4"/>
   </g>
   <g id="patch_159">
    <path d="M 1226.214425 252 
L 1233.727398 252 
L 1233.727398 252 
L 1226.214425 252 
z
" clip-path="url(#p4c91db9309)" style="fill: #1f77b4"/>
   </g>
   <g id="patch_160">
    <path d="M 1233.727398 252 
L 1241.240372 252 
L 1241.240372 252 
L 1233.727398 252 
z
" clip-path="url(#p4c91db9309)" style="fill: #1f77b4"/>
   </g>
   <g id="patch_161">
    <path d="M 1241.240372 252 
L 1248.753345 252 
L 1248.753345 252 
L 1241.240372 252 
z
" clip-path="url(#p4c91db9309)" style="fill: #1f77b4"/>
   </g>
   <g id="patch_162">
    <path d="M 1248.753345 252 
L 1256.266318 252 
L 1256.266318 252 
L 1248.753345 252 
z
" clip-path="url(#p4c91db9309)" style="fill: #1f77b4"/>
   </g>
   <g id="patch_163">
    <path d="M 1256.266318 252 
L 1263.779291 252 
L 1263.779291 252 
L 1256.266318 252 
z
" clip-path="url(#p4c91db9309)" style="fill: #1f77b4"/>
   </g>
   <g id="patch_164">
    <path d="M 1263.779291 252 
L 1271.292264 252 
L 1271.292264 252 
L 1263.779291 252 
z
" clip-path="url(#p4c91db9309)" style="fill: #1f77b4"/>
   </g>
   <g id="patch_165">
    <path d="M 1271.292264 252 
L 1278.805238 252 
L 1278.805238 252 
L 1271.292264 252 
z
" clip-path="url(#p4c91db9309)" style="fill: #1f77b4"/>
   </g>
   <g id="patch_166">
    <path d="M 1278.805238 252 
L 1286.318211 252 
L 1286.318211 252 
L 1278.805238 252 
z
" clip-path="url(#p4c91db9309)" style="fill: #1f77b4"/>
   </g>
   <g id="patch_167">
    <path d="M 1286.318211 252 
L 1293.831184 252 
L 1293.831184 252 
L 1286.318211 252 
z
" clip-path="url(#p4c91db9309)" style="fill: #1f77b4"/>
   </g>
   <g id="patch_168">
    <path d="M 1293.831184 252 
L 1301.344157 252 
L 1301.344157 252 
L 1293.831184 252 
z
" clip-path="url(#p4c91db9309)" style="fill: #1f77b4"/>
   </g>
   <g id="patch_169">
    <path d="M 1301.344157 252 
L 1308.85713 252 
L 1308.85713 252 
L 1301.344157 252 
z
" clip-path="url(#p4c91db9309)" style="fill: #1f77b4"/>
   </g>
   <g id="patch_170">
    <path d="M 1308.85713 252 
L 1316.370104 252 
L 1316.370104 252 
L 1308.85713 252 
z
" clip-path="url(#p4c91db9309)" style="fill: #1f77b4"/>
   </g>
   <g id="patch_171">
    <path d="M 1316.370104 252 
L 1323.883077 252 
L 1323.883077 252 
L 1316.370104 252 
z
" clip-path="url(#p4c91db9309)" style="fill: #1f77b4"/>
   </g>
   <g id="patch_172">
    <path d="M 1323.883077 252 
L 1331.39605 252 
L 1331.39605 252 
L 1323.883077 252 
z
" clip-path="url(#p4c91db9309)" style="fill: #1f77b4"/>
   </g>
   <g id="patch_173">
    <path d="M 1331.39605 252 
L 1338.909023 252 
L 1338.909023 252 
L 1331.39605 252 
z
" clip-path="url(#p4c91db9309)" style="fill: #1f77b4"/>
   </g>
   <g id="patch_174">
    <path d="M 1338.909023 252 
L 1346.421997 252 
L 1346.421997 252 
L 1338.909023 252 
z
" clip-path="url(#p4c91db9309)" style="fill: #1f77b4"/>
   </g>
   <g id="patch_175">
    <path d="M 1346.421997 252 
L 1353.93497 252 
L 1353.93497 252 
L 1346.421997 252 
z
" clip-path="url(#p4c91db9309)" style="fill: #1f77b4"/>
   </g>
   <g id="patch_176">
    <path d="M 1353.93497 252 
L 1361.447943 252 
L 1361.447943 252 
L 1353.93497 252 
z
" clip-path="url(#p4c91db9309)" style="fill: #1f77b4"/>
   </g>
   <g id="patch_177">
    <path d="M 1361.447943 252 
L 1368.960916 252 
L 1368.960916 252 
L 1361.447943 252 
z
" clip-path="url(#p4c91db9309)" style="fill: #1f77b4"/>
   </g>
   <g id="patch_178">
    <path d="M 1368.960916 252 
L 1376.473889 252 
L 1376.473889 252 
L 1368.960916 252 
z
" clip-path="url(#p4c91db9309)" style="fill: #1f77b4"/>
   </g>
   <g id="patch_179">
    <path d="M 1376.473889 252 
L 1383.986863 252 
L 1383.986863 252 
L 1376.473889 252 
z
" clip-path="url(#p4c91db9309)" style="fill: #1f77b4"/>
   </g>
   <g id="patch_180">
    <path d="M 1383.986863 252 
L 1391.499836 252 
L 1391.499836 252 
L 1383.986863 252 
z
" clip-path="url(#p4c91db9309)" style="fill: #1f77b4"/>
   </g>
   <g id="patch_181">
    <path d="M 1391.499836 252 
L 1399.012809 252 
L 1399.012809 252 
L 1391.499836 252 
z
" clip-path="url(#p4c91db9309)" style="fill: #1f77b4"/>
   </g>
   <g id="patch_182">
    <path d="M 1399.012809 252 
L 1406.525782 252 
L 1406.525782 252 
L 1399.012809 252 
z
" clip-path="url(#p4c91db9309)" style="fill: #1f77b4"/>
   </g>
   <g id="patch_183">
    <path d="M 1406.525782 252 
L 1414.038755 252 
L 1414.038755 252 
L 1406.525782 252 
z
" clip-path="url(#p4c91db9309)" style="fill: #1f77b4"/>
   </g>
   <g id="patch_184">
    <path d="M 1414.038755 252 
L 1421.551729 252 
L 1421.551729 252 
L 1414.038755 252 
z
" clip-path="url(#p4c91db9309)" style="fill: #1f77b4"/>
   </g>
   <g id="patch_185">
    <path d="M 1421.551729 252 
L 1429.064702 252 
L 1429.064702 252 
L 1421.551729 252 
z
" clip-path="url(#p4c91db9309)" style="fill: #1f77b4"/>
   </g>
   <g id="patch_186">
    <path d="M 1429.064702 252 
L 1436.577675 252 
L 1436.577675 252 
L 1429.064702 252 
z
" clip-path="url(#p4c91db9309)" style="fill: #1f77b4"/>
   </g>
   <g id="patch_187">
    <path d="M 1436.577675 252 
L 1444.090648 252 
L 1444.090648 252 
L 1436.577675 252 
z
" clip-path="url(#p4c91db9309)" style="fill: #1f77b4"/>
   </g>
   <g id="patch_188">
    <path d="M 1444.090648 252 
L 1451.603621 252 
L 1451.603621 252 
L 1444.090648 252 
z
" clip-path="url(#p4c91db9309)" style="fill: #1f77b4"/>
   </g>
   <g id="patch_189">
    <path d="M 1451.603621 252 
L 1459.116595 252 
L 1459.116595 252 
L 1451.603621 252 
z
" clip-path="url(#p4c91db9309)" style="fill: #1f77b4"/>
   </g>
   <g id="patch_190">
    <path d="M 1459.116595 252 
L 1466.629568 252 
L 1466.629568 252 
L 1459.116595 252 
z
" clip-path="url(#p4c91db9309)" style="fill: #1f77b4"/>
   </g>
   <g id="patch_191">
    <path d="M 1466.629568 252 
L 1474.142541 252 
L 1474.142541 252 
L 1466.629568 252 
z
" clip-path="url(#p4c91db9309)" style="fill: #1f77b4"/>
   </g>
   <g id="patch_192">
    <path d="M 1474.142541 252 
L 1481.655514 252 
L 1481.655514 252 
L 1474.142541 252 
z
" clip-path="url(#p4c91db9309)" style="fill: #1f77b4"/>
   </g>
   <g id="patch_193">
    <path d="M 1481.655514 252 
L 1489.168488 252 
L 1489.168488 252 
L 1481.655514 252 
z
" clip-path="url(#p4c91db9309)" style="fill: #1f77b4"/>
   </g>
   <g id="patch_194">
    <path d="M 1489.168488 252 
L 1496.681461 252 
L 1496.681461 252 
L 1489.168488 252 
z
" clip-path="url(#p4c91db9309)" style="fill: #1f77b4"/>
   </g>
   <g id="patch_195">
    <path d="M 1496.681461 252 
L 1504.194434 252 
L 1504.194434 252 
L 1496.681461 252 
z
" clip-path="url(#p4c91db9309)" style="fill: #1f77b4"/>
   </g>
   <g id="patch_196">
    <path d="M 1504.194434 252 
L 1511.707407 252 
L 1511.707407 252 
L 1504.194434 252 
z
" clip-path="url(#p4c91db9309)" style="fill: #1f77b4"/>
   </g>
   <g id="patch_197">
    <path d="M 1511.707407 252 
L 1519.22038 252 
L 1519.22038 252 
L 1511.707407 252 
z
" clip-path="url(#p4c91db9309)" style="fill: #1f77b4"/>
   </g>
   <g id="patch_198">
    <path d="M 1519.22038 252 
L 1526.733354 252 
L 1526.733354 252 
L 1519.22038 252 
z
" clip-path="url(#p4c91db9309)" style="fill: #1f77b4"/>
   </g>
   <g id="patch_199">
    <path d="M 1526.733354 252 
L 1534.246327 252 
L 1534.246327 252 
L 1526.733354 252 
z
" clip-path="url(#p4c91db9309)" style="fill: #1f77b4"/>
   </g>
   <g id="patch_200">
    <path d="M 1534.246327 252 
L 1541.7593 252 
L 1541.7593 252 
L 1534.246327 252 
z
" clip-path="url(#p4c91db9309)" style="fill: #1f77b4"/>
   </g>
   <g id="patch_201">
    <path d="M 1541.7593 252 
L 1549.272273 252 
L 1549.272273 252 
L 1541.7593 252 
z
" clip-path="url(#p4c91db9309)" style="fill: #1f77b4"/>
   </g>
   <g id="patch_202">
    <path d="M 1549.272273 252 
L 1556.785246 252 
L 1556.785246 252 
L 1549.272273 252 
z
" clip-path="url(#p4c91db9309)" style="fill: #1f77b4"/>
   </g>
   <g id="patch_203">
    <path d="M 1556.785246 252 
L 1564.29822 252 
L 1564.29822 252 
L 1556.785246 252 
z
" clip-path="url(#p4c91db9309)" style="fill: #1f77b4"/>
   </g>
   <g id="patch_204">
    <path d="M 1564.29822 252 
L 1571.811193 252 
L 1571.811193 252 
L 1564.29822 252 
z
" clip-path="url(#p4c91db9309)" style="fill: #1f77b4"/>
   </g>
   <g id="patch_205">
    <path d="M 1571.811193 252 
L 1579.324166 252 
L 1579.324166 252 
L 1571.811193 252 
z
" clip-path="url(#p4c91db9309)" style="fill: #1f77b4"/>
   </g>
   <g id="patch_206">
    <path d="M 1579.324166 252 
L 1586.837139 252 
L 1586.837139 252 
L 1579.324166 252 
z
" clip-path="url(#p4c91db9309)" style="fill: #1f77b4"/>
   </g>
   <g id="patch_207">
    <path d="M 1586.837139 252 
L 1594.350113 252 
L 1594.350113 252 
L 1586.837139 252 
z
" clip-path="url(#p4c91db9309)" style="fill: #1f77b4"/>
   </g>
   <g id="patch_208">
    <path d="M 1594.350113 252 
L 1601.863086 252 
L 1601.863086 252 
L 1594.350113 252 
z
" clip-path="url(#p4c91db9309)" style="fill: #1f77b4"/>
   </g>
   <g id="patch_209">
    <path d="M 1601.863086 252 
L 1609.376059 252 
L 1609.376059 252 
L 1601.863086 252 
z
" clip-path="url(#p4c91db9309)" style="fill: #1f77b4"/>
   </g>
   <g id="patch_210">
    <path d="M 1609.376059 252 
L 1616.889032 252 
L 1616.889032 252 
L 1609.376059 252 
z
" clip-path="url(#p4c91db9309)" style="fill: #1f77b4"/>
   </g>
   <g id="patch_211">
    <path d="M 1616.889032 252 
L 1624.402005 252 
L 1624.402005 252 
L 1616.889032 252 
z
" clip-path="url(#p4c91db9309)" style="fill: #1f77b4"/>
   </g>
   <g id="patch_212">
    <path d="M 1624.402005 252 
L 1631.914979 252 
L 1631.914979 252 
L 1624.402005 252 
z
" clip-path="url(#p4c91db9309)" style="fill: #1f77b4"/>
   </g>
   <g id="patch_213">
    <path d="M 1631.914979 252 
L 1639.427952 252 
L 1639.427952 252 
L 1631.914979 252 
z
" clip-path="url(#p4c91db9309)" style="fill: #1f77b4"/>
   </g>
   <g id="patch_214">
    <path d="M 1639.427952 252 
L 1646.940925 252 
L 1646.940925 252 
L 1639.427952 252 
z
" clip-path="url(#p4c91db9309)" style="fill: #1f77b4"/>
   </g>
   <g id="patch_215">
    <path d="M 1646.940925 252 
L 1654.453898 252 
L 1654.453898 252 
L 1646.940925 252 
z
" clip-path="url(#p4c91db9309)" style="fill: #1f77b4"/>
   </g>
   <g id="patch_216">
    <path d="M 1654.453898 252 
L 1661.966871 252 
L 1661.966871 252 
L 1654.453898 252 
z
" clip-path="url(#p4c91db9309)" style="fill: #1f77b4"/>
   </g>
   <g id="patch_217">
    <path d="M 1661.966871 252 
L 1669.479845 252 
L 1669.479845 252 
L 1661.966871 252 
z
" clip-path="url(#p4c91db9309)" style="fill: #1f77b4"/>
   </g>
   <g id="patch_218">
    <path d="M 1669.479845 252 
L 1676.992818 252 
L 1676.992818 252 
L 1669.479845 252 
z
" clip-path="url(#p4c91db9309)" style="fill: #1f77b4"/>
   </g>
   <g id="patch_219">
    <path d="M 1676.992818 252 
L 1684.505791 252 
L 1684.505791 252 
L 1676.992818 252 
z
" clip-path="url(#p4c91db9309)" style="fill: #1f77b4"/>
   </g>
   <g id="patch_220">
    <path d="M 1684.505791 252 
L 1692.018764 252 
L 1692.018764 252 
L 1684.505791 252 
z
" clip-path="url(#p4c91db9309)" style="fill: #1f77b4"/>
   </g>
   <g id="patch_221">
    <path d="M 1692.018764 252 
L 1699.531737 252 
L 1699.531737 252 
L 1692.018764 252 
z
" clip-path="url(#p4c91db9309)" style="fill: #1f77b4"/>
   </g>
   <g id="patch_222">
    <path d="M 1699.531737 252 
L 1707.044711 252 
L 1707.044711 252 
L 1699.531737 252 
z
" clip-path="url(#p4c91db9309)" style="fill: #1f77b4"/>
   </g>
   <g id="patch_223">
    <path d="M 1707.044711 252 
L 1714.557684 252 
L 1714.557684 252 
L 1707.044711 252 
z
" clip-path="url(#p4c91db9309)" style="fill: #1f77b4"/>
   </g>
   <g id="patch_224">
    <path d="M 1714.557684 252 
L 1722.070657 252 
L 1722.070657 252 
L 1714.557684 252 
z
" clip-path="url(#p4c91db9309)" style="fill: #1f77b4"/>
   </g>
   <g id="patch_225">
    <path d="M 1722.070657 252 
L 1729.58363 252 
L 1729.58363 252 
L 1722.070657 252 
z
" clip-path="url(#p4c91db9309)" style="fill: #1f77b4"/>
   </g>
   <g id="patch_226">
    <path d="M 1729.58363 252 
L 1737.096604 252 
L 1737.096604 252 
L 1729.58363 252 
z
" clip-path="url(#p4c91db9309)" style="fill: #1f77b4"/>
   </g>
   <g id="patch_227">
    <path d="M 1737.096604 252 
L 1744.609577 252 
L 1744.609577 252 
L 1737.096604 252 
z
" clip-path="url(#p4c91db9309)" style="fill: #1f77b4"/>
   </g>
   <g id="patch_228">
    <path d="M 1744.609577 252 
L 1752.12255 252 
L 1752.12255 252 
L 1744.609577 252 
z
" clip-path="url(#p4c91db9309)" style="fill: #1f77b4"/>
   </g>
   <g id="patch_229">
    <path d="M 1752.12255 252 
L 1759.635523 252 
L 1759.635523 252 
L 1752.12255 252 
z
" clip-path="url(#p4c91db9309)" style="fill: #1f77b4"/>
   </g>
   <g id="patch_230">
    <path d="M 1759.635523 252 
L 1767.148496 252 
L 1767.148496 252 
L 1759.635523 252 
z
" clip-path="url(#p4c91db9309)" style="fill: #1f77b4"/>
   </g>
   <g id="patch_231">
    <path d="M 1767.148496 252 
L 1774.66147 252 
L 1774.66147 252 
L 1767.148496 252 
z
" clip-path="url(#p4c91db9309)" style="fill: #1f77b4"/>
   </g>
   <g id="patch_232">
    <path d="M 1774.66147 252 
L 1782.174443 252 
L 1782.174443 252 
L 1774.66147 252 
z
" clip-path="url(#p4c91db9309)" style="fill: #1f77b4"/>
   </g>
   <g id="patch_233">
    <path d="M 1782.174443 252 
L 1789.687416 252 
L 1789.687416 252 
L 1782.174443 252 
z
" clip-path="url(#p4c91db9309)" style="fill: #1f77b4"/>
   </g>
   <g id="patch_234">
    <path d="M 1789.687416 252 
L 1797.200389 252 
L 1797.200389 252 
L 1789.687416 252 
z
" clip-path="url(#p4c91db9309)" style="fill: #1f77b4"/>
   </g>
   <g id="patch_235">
    <path d="M 1797.200389 252 
L 1804.713362 252 
L 1804.713362 252 
L 1797.200389 252 
z
" clip-path="url(#p4c91db9309)" style="fill: #1f77b4"/>
   </g>
   <g id="patch_236">
    <path d="M 1804.713362 252 
L 1812.226336 252 
L 1812.226336 251.99159 
L 1804.713362 251.99159 
z
" clip-path="url(#p4c91db9309)" style="fill: #1f77b4"/>
   </g>
   <g id="patch_237">
    <path d="M 1812.226336 252 
L 1819.739309 252 
L 1819.739309 252 
L 1812.226336 252 
z
" clip-path="url(#p4c91db9309)" style="fill: #1f77b4"/>
   </g>
   <g id="patch_238">
    <path d="M 1819.739309 252 
L 1827.252282 252 
L 1827.252282 252 
L 1819.739309 252 
z
" clip-path="url(#p4c91db9309)" style="fill: #1f77b4"/>
   </g>
   <g id="patch_239">
    <path d="M 1827.252282 252 
L 1834.765255 252 
L 1834.765255 252 
L 1827.252282 252 
z
" clip-path="url(#p4c91db9309)" style="fill: #1f77b4"/>
   </g>
   <g id="patch_240">
    <path d="M 1834.765255 252 
L 1842.278229 252 
L 1842.278229 252 
L 1834.765255 252 
z
" clip-path="url(#p4c91db9309)" style="fill: #1f77b4"/>
   </g>
   <g id="patch_241">
    <path d="M 1842.278229 252 
L 1849.791202 252 
L 1849.791202 252 
L 1842.278229 252 
z
" clip-path="url(#p4c91db9309)" style="fill: #1f77b4"/>
   </g>
   <g id="patch_242">
    <path d="M 1849.791202 252 
L 1857.304175 252 
L 1857.304175 252 
L 1849.791202 252 
z
" clip-path="url(#p4c91db9309)" style="fill: #1f77b4"/>
   </g>
   <g id="patch_243">
    <path d="M 1857.304175 252 
L 1864.817148 252 
L 1864.817148 252 
L 1857.304175 252 
z
" clip-path="url(#p4c91db9309)" style="fill: #1f77b4"/>
   </g>
   <g id="patch_244">
    <path d="M 1864.817148 252 
L 1872.330121 252 
L 1872.330121 252 
L 1864.817148 252 
z
" clip-path="url(#p4c91db9309)" style="fill: #1f77b4"/>
   </g>
   <g id="patch_245">
    <path d="M 1872.330121 252 
L 1879.843095 252 
L 1879.843095 252 
L 1872.330121 252 
z
" clip-path="url(#p4c91db9309)" style="fill: #1f77b4"/>
   </g>
   <g id="patch_246">
    <path d="M 1879.843095 252 
L 1887.356068 252 
L 1887.356068 252 
L 1879.843095 252 
z
" clip-path="url(#p4c91db9309)" style="fill: #1f77b4"/>
   </g>
   <g id="patch_247">
    <path d="M 1887.356068 252 
L 1894.869041 252 
L 1894.869041 252 
L 1887.356068 252 
z
" clip-path="url(#p4c91db9309)" style="fill: #1f77b4"/>
   </g>
   <g id="patch_248">
    <path d="M 1894.869041 252 
L 1902.382014 252 
L 1902.382014 252 
L 1894.869041 252 
z
" clip-path="url(#p4c91db9309)" style="fill: #1f77b4"/>
   </g>
   <g id="patch_249">
    <path d="M 1902.382014 252 
L 1909.894987 252 
L 1909.894987 252 
L 1902.382014 252 
z
" clip-path="url(#p4c91db9309)" style="fill: #1f77b4"/>
   </g>
   <g id="patch_250">
    <path d="M 1909.894987 252 
L 1917.407961 252 
L 1917.407961 252 
L 1909.894987 252 
z
" clip-path="url(#p4c91db9309)" style="fill: #1f77b4"/>
   </g>
   <g id="patch_251">
    <path d="M 1917.407961 252 
L 1924.920934 252 
L 1924.920934 252 
L 1917.407961 252 
z
" clip-path="url(#p4c91db9309)" style="fill: #1f77b4"/>
   </g>
   <g id="patch_252">
    <path d="M 1924.920934 252 
L 1932.433907 252 
L 1932.433907 252 
L 1924.920934 252 
z
" clip-path="url(#p4c91db9309)" style="fill: #1f77b4"/>
   </g>
   <g id="patch_253">
    <path d="M 1932.433907 252 
L 1939.94688 252 
L 1939.94688 252 
L 1932.433907 252 
z
" clip-path="url(#p4c91db9309)" style="fill: #1f77b4"/>
   </g>
   <g id="patch_254">
    <path d="M 1939.94688 252 
L 1947.459853 252 
L 1947.459853 252 
L 1939.94688 252 
z
" clip-path="url(#p4c91db9309)" style="fill: #1f77b4"/>
   </g>
   <g id="patch_255">
    <path d="M 1947.459853 252 
L 1954.972827 252 
L 1954.972827 252 
L 1947.459853 252 
z
" clip-path="url(#p4c91db9309)" style="fill: #1f77b4"/>
   </g>
   <g id="patch_256">
    <path d="M 1954.972827 252 
L 1962.4858 252 
L 1962.4858 252 
L 1954.972827 252 
z
" clip-path="url(#p4c91db9309)" style="fill: #1f77b4"/>
   </g>
   <g id="patch_257">
    <path d="M 1962.4858 252 
L 1969.998773 252 
L 1969.998773 252 
L 1962.4858 252 
z
" clip-path="url(#p4c91db9309)" style="fill: #1f77b4"/>
   </g>
   <g id="patch_258">
    <path d="M 1969.998773 252 
L 1977.511746 252 
L 1977.511746 252 
L 1969.998773 252 
z
" clip-path="url(#p4c91db9309)" style="fill: #1f77b4"/>
   </g>
   <g id="patch_259">
    <path d="M 1977.511746 252 
L 1985.02472 252 
L 1985.02472 252 
L 1977.511746 252 
z
" clip-path="url(#p4c91db9309)" style="fill: #1f77b4"/>
   </g>
   <g id="patch_260">
    <path d="M 1985.02472 252 
L 1992.537693 252 
L 1992.537693 252 
L 1985.02472 252 
z
" clip-path="url(#p4c91db9309)" style="fill: #1f77b4"/>
   </g>
   <g id="patch_261">
    <path d="M 1992.537693 252 
L 2000.050666 252 
L 2000.050666 252 
L 1992.537693 252 
z
" clip-path="url(#p4c91db9309)" style="fill: #1f77b4"/>
   </g>
   <g id="patch_262">
    <path d="M 2000.050666 252 
L 2007.563639 252 
L 2007.563639 252 
L 2000.050666 252 
z
" clip-path="url(#p4c91db9309)" style="fill: #1f77b4"/>
   </g>
   <g id="patch_263">
    <path d="M 2007.563639 252 
L 2015.076612 252 
L 2015.076612 252 
L 2007.563639 252 
z
" clip-path="url(#p4c91db9309)" style="fill: #1f77b4"/>
   </g>
   <g id="patch_264">
    <path d="M 2015.076612 252 
L 2022.589586 252 
L 2022.589586 252 
L 2015.076612 252 
z
" clip-path="url(#p4c91db9309)" style="fill: #1f77b4"/>
   </g>
   <g id="patch_265">
    <path d="M 2022.589586 252 
L 2030.102559 252 
L 2030.102559 252 
L 2022.589586 252 
z
" clip-path="url(#p4c91db9309)" style="fill: #1f77b4"/>
   </g>
   <g id="patch_266">
    <path d="M 2030.102559 252 
L 2037.615532 252 
L 2037.615532 252 
L 2030.102559 252 
z
" clip-path="url(#p4c91db9309)" style="fill: #1f77b4"/>
   </g>
   <g id="patch_267">
    <path d="M 2037.615532 252 
L 2045.128505 252 
L 2045.128505 252 
L 2037.615532 252 
z
" clip-path="url(#p4c91db9309)" style="fill: #1f77b4"/>
   </g>
   <g id="patch_268">
    <path d="M 2045.128505 252 
L 2052.641478 252 
L 2052.641478 252 
L 2045.128505 252 
z
" clip-path="url(#p4c91db9309)" style="fill: #1f77b4"/>
   </g>
   <g id="patch_269">
    <path d="M 2052.641478 252 
L 2060.154452 252 
L 2060.154452 252 
L 2052.641478 252 
z
" clip-path="url(#p4c91db9309)" style="fill: #1f77b4"/>
   </g>
   <g id="patch_270">
    <path d="M 2060.154452 252 
L 2067.667425 252 
L 2067.667425 252 
L 2060.154452 252 
z
" clip-path="url(#p4c91db9309)" style="fill: #1f77b4"/>
   </g>
   <g id="patch_271">
    <path d="M 2067.667425 252 
L 2075.180398 252 
L 2075.180398 252 
L 2067.667425 252 
z
" clip-path="url(#p4c91db9309)" style="fill: #1f77b4"/>
   </g>
   <g id="patch_272">
    <path d="M 2075.180398 252 
L 2082.693371 252 
L 2082.693371 252 
L 2075.180398 252 
z
" clip-path="url(#p4c91db9309)" style="fill: #1f77b4"/>
   </g>
   <g id="patch_273">
    <path d="M 2082.693371 252 
L 2090.206345 252 
L 2090.206345 252 
L 2082.693371 252 
z
" clip-path="url(#p4c91db9309)" style="fill: #1f77b4"/>
   </g>
   <g id="patch_274">
    <path d="M 2090.206345 252 
L 2097.719318 252 
L 2097.719318 252 
L 2090.206345 252 
z
" clip-path="url(#p4c91db9309)" style="fill: #1f77b4"/>
   </g>
   <g id="patch_275">
    <path d="M 2097.719318 252 
L 2105.232291 252 
L 2105.232291 252 
L 2097.719318 252 
z
" clip-path="url(#p4c91db9309)" style="fill: #1f77b4"/>
   </g>
   <g id="patch_276">
    <path d="M 2105.232291 252 
L 2112.745264 252 
L 2112.745264 252 
L 2105.232291 252 
z
" clip-path="url(#p4c91db9309)" style="fill: #1f77b4"/>
   </g>
   <g id="patch_277">
    <path d="M 2112.745264 252 
L 2120.258237 252 
L 2120.258237 252 
L 2112.745264 252 
z
" clip-path="url(#p4c91db9309)" style="fill: #1f77b4"/>
   </g>
   <g id="patch_278">
    <path d="M 2120.258237 252 
L 2127.771211 252 
L 2127.771211 252 
L 2120.258237 252 
z
" clip-path="url(#p4c91db9309)" style="fill: #1f77b4"/>
   </g>
   <g id="patch_279">
    <path d="M 2127.771211 252 
L 2135.284184 252 
L 2135.284184 252 
L 2127.771211 252 
z
" clip-path="url(#p4c91db9309)" style="fill: #1f77b4"/>
   </g>
   <g id="patch_280">
    <path d="M 2135.284184 252 
L 2142.797157 252 
L 2142.797157 252 
L 2135.284184 252 
z
" clip-path="url(#p4c91db9309)" style="fill: #1f77b4"/>
   </g>
   <g id="patch_281">
    <path d="M 2142.797157 252 
L 2150.31013 252 
L 2150.31013 252 
L 2142.797157 252 
z
" clip-path="url(#p4c91db9309)" style="fill: #1f77b4"/>
   </g>
   <g id="patch_282">
    <path d="M 2150.31013 252 
L 2157.823103 252 
L 2157.823103 252 
L 2150.31013 252 
z
" clip-path="url(#p4c91db9309)" style="fill: #1f77b4"/>
   </g>
   <g id="patch_283">
    <path d="M 2157.823103 252 
L 2165.336077 252 
L 2165.336077 252 
L 2157.823103 252 
z
" clip-path="url(#p4c91db9309)" style="fill: #1f77b4"/>
   </g>
   <g id="patch_284">
    <path d="M 2165.336077 252 
L 2172.84905 252 
L 2172.84905 252 
L 2165.336077 252 
z
" clip-path="url(#p4c91db9309)" style="fill: #1f77b4"/>
   </g>
   <g id="patch_285">
    <path d="M 2172.84905 252 
L 2180.362023 252 
L 2180.362023 252 
L 2172.84905 252 
z
" clip-path="url(#p4c91db9309)" style="fill: #1f77b4"/>
   </g>
   <g id="patch_286">
    <path d="M 2180.362023 252 
L 2187.874996 252 
L 2187.874996 252 
L 2180.362023 252 
z
" clip-path="url(#p4c91db9309)" style="fill: #1f77b4"/>
   </g>
   <g id="patch_287">
    <path d="M 2187.874996 252 
L 2195.38797 252 
L 2195.38797 252 
L 2187.874996 252 
z
" clip-path="url(#p4c91db9309)" style="fill: #1f77b4"/>
   </g>
   <g id="patch_288">
    <path d="M 2195.38797 252 
L 2202.900943 252 
L 2202.900943 252 
L 2195.38797 252 
z
" clip-path="url(#p4c91db9309)" style="fill: #1f77b4"/>
   </g>
   <g id="patch_289">
    <path d="M 2202.900943 252 
L 2210.413916 252 
L 2210.413916 252 
L 2202.900943 252 
z
" clip-path="url(#p4c91db9309)" style="fill: #1f77b4"/>
   </g>
   <g id="patch_290">
    <path d="M 2210.413916 252 
L 2217.926889 252 
L 2217.926889 252 
L 2210.413916 252 
z
" clip-path="url(#p4c91db9309)" style="fill: #1f77b4"/>
   </g>
   <g id="patch_291">
    <path d="M 2217.926889 252 
L 2225.439862 252 
L 2225.439862 252 
L 2217.926889 252 
z
" clip-path="url(#p4c91db9309)" style="fill: #1f77b4"/>
   </g>
   <g id="patch_292">
    <path d="M 2225.439862 252 
L 2232.952836 252 
L 2232.952836 252 
L 2225.439862 252 
z
" clip-path="url(#p4c91db9309)" style="fill: #1f77b4"/>
   </g>
   <g id="patch_293">
    <path d="M 2232.952836 252 
L 2240.465809 252 
L 2240.465809 252 
L 2232.952836 252 
z
" clip-path="url(#p4c91db9309)" style="fill: #1f77b4"/>
   </g>
   <g id="patch_294">
    <path d="M 2240.465809 252 
L 2247.978782 252 
L 2247.978782 252 
L 2240.465809 252 
z
" clip-path="url(#p4c91db9309)" style="fill: #1f77b4"/>
   </g>
   <g id="patch_295">
    <path d="M 2247.978782 252 
L 2255.491755 252 
L 2255.491755 252 
L 2247.978782 252 
z
" clip-path="url(#p4c91db9309)" style="fill: #1f77b4"/>
   </g>
   <g id="patch_296">
    <path d="M 2255.491755 252 
L 2263.004728 252 
L 2263.004728 252 
L 2255.491755 252 
z
" clip-path="url(#p4c91db9309)" style="fill: #1f77b4"/>
   </g>
   <g id="patch_297">
    <path d="M 2263.004728 252 
L 2270.517702 252 
L 2270.517702 252 
L 2263.004728 252 
z
" clip-path="url(#p4c91db9309)" style="fill: #1f77b4"/>
   </g>
   <g id="patch_298">
    <path d="M 2270.517702 252 
L 2278.030675 252 
L 2278.030675 252 
L 2270.517702 252 
z
" clip-path="url(#p4c91db9309)" style="fill: #1f77b4"/>
   </g>
   <g id="patch_299">
    <path d="M 2278.030675 252 
L 2285.543648 252 
L 2285.543648 252 
L 2278.030675 252 
z
" clip-path="url(#p4c91db9309)" style="fill: #1f77b4"/>
   </g>
   <g id="patch_300">
    <path d="M 2285.543648 252 
L 2293.056621 252 
L 2293.056621 252 
L 2285.543648 252 
z
" clip-path="url(#p4c91db9309)" style="fill: #1f77b4"/>
   </g>
   <g id="patch_301">
    <path d="M 2293.056621 252 
L 2300.569594 252 
L 2300.569594 252 
L 2293.056621 252 
z
" clip-path="url(#p4c91db9309)" style="fill: #1f77b4"/>
   </g>
   <g id="patch_302">
    <path d="M 2300.569594 252 
L 2308.082568 252 
L 2308.082568 251.99159 
L 2300.569594 251.99159 
z
" clip-path="url(#p4c91db9309)" style="fill: #1f77b4"/>
   </g>
   <g id="matplotlib.axis_1">
    <g id="xtick_1">
     <g id="line2d_1">
      <defs>
       <path id="m2a8775adfe" d="M 0 0 
L 0 3.5 
" style="stroke: #000000; stroke-width: 0.8"/>
      </defs>
      <g>
       <use xlink:href="#m2a8775adfe" x="54" y="252" style="stroke: #000000; stroke-width: 0.8"/>
      </g>
     </g>
     <g id="text_1">
      <!-- 0.0 -->
      <g transform="translate(46.048437 266.598437)scale(0.1 -0.1)">
       <defs>
        <path id="DejaVuSans-30" d="M 2034 4250 
Q 1547 4250 1301 3770 
Q 1056 3291 1056 2328 
Q 1056 1369 1301 889 
Q 1547 409 2034 409 
Q 2525 409 2770 889 
Q 3016 1369 3016 2328 
Q 3016 3291 2770 3770 
Q 2525 4250 2034 4250 
z
M 2034 4750 
Q 2819 4750 3233 4129 
Q 3647 3509 3647 2328 
Q 3647 1150 3233 529 
Q 2819 -91 2034 -91 
Q 1250 -91 836 529 
Q 422 1150 422 2328 
Q 422 3509 836 4129 
Q 1250 4750 2034 4750 
z
" transform="scale(0.015625)"/>
        <path id="DejaVuSans-2e" d="M 684 794 
L 1344 794 
L 1344 0 
L 684 0 
L 684 794 
z
" transform="scale(0.015625)"/>
       </defs>
       <use xlink:href="#DejaVuSans-30"/>
       <use xlink:href="#DejaVuSans-2e" x="63.623047"/>
       <use xlink:href="#DejaVuSans-30" x="95.410156"/>
      </g>
     </g>
    </g>
    <g id="xtick_2">
     <g id="line2d_2">
      <g>
       <use xlink:href="#m2a8775adfe" x="95.85" y="252" style="stroke: #000000; stroke-width: 0.8"/>
      </g>
     </g>
     <g id="text_2">
      <!-- 0.5 -->
      <g transform="translate(87.898438 266.598437)scale(0.1 -0.1)">
       <defs>
        <path id="DejaVuSans-35" d="M 691 4666 
L 3169 4666 
L 3169 4134 
L 1269 4134 
L 1269 2991 
Q 1406 3038 1543 3061 
Q 1681 3084 1819 3084 
Q 2600 3084 3056 2656 
Q 3513 2228 3513 1497 
Q 3513 744 3044 326 
Q 2575 -91 1722 -91 
Q 1428 -91 1123 -41 
Q 819 9 494 109 
L 494 744 
Q 775 591 1075 516 
Q 1375 441 1709 441 
Q 2250 441 2565 725 
Q 2881 1009 2881 1497 
Q 2881 1984 2565 2268 
Q 2250 2553 1709 2553 
Q 1456 2553 1204 2497 
Q 953 2441 691 2322 
L 691 4666 
z
" transform="scale(0.015625)"/>
       </defs>
       <use xlink:href="#DejaVuSans-30"/>
       <use xlink:href="#DejaVuSans-2e" x="63.623047"/>
       <use xlink:href="#DejaVuSans-35" x="95.410156"/>
      </g>
     </g>
    </g>
    <g id="xtick_3">
     <g id="line2d_3">
      <g>
       <use xlink:href="#m2a8775adfe" x="137.7" y="252" style="stroke: #000000; stroke-width: 0.8"/>
      </g>
     </g>
     <g id="text_3">
      <!-- 1.0 -->
      <g transform="translate(129.748437 266.598437)scale(0.1 -0.1)">
       <defs>
        <path id="DejaVuSans-31" d="M 794 531 
L 1825 531 
L 1825 4091 
L 703 3866 
L 703 4441 
L 1819 4666 
L 2450 4666 
L 2450 531 
L 3481 531 
L 3481 0 
L 794 0 
L 794 531 
z
" transform="scale(0.015625)"/>
       </defs>
       <use xlink:href="#DejaVuSans-31"/>
       <use xlink:href="#DejaVuSans-2e" x="63.623047"/>
       <use xlink:href="#DejaVuSans-30" x="95.410156"/>
      </g>
     </g>
    </g>
    <g id="xtick_4">
     <g id="line2d_4">
      <g>
       <use xlink:href="#m2a8775adfe" x="179.55" y="252" style="stroke: #000000; stroke-width: 0.8"/>
      </g>
     </g>
     <g id="text_4">
      <!-- 1.5 -->
      <g transform="translate(171.598438 266.598437)scale(0.1 -0.1)">
       <use xlink:href="#DejaVuSans-31"/>
       <use xlink:href="#DejaVuSans-2e" x="63.623047"/>
       <use xlink:href="#DejaVuSans-35" x="95.410156"/>
      </g>
     </g>
    </g>
    <g id="xtick_5">
     <g id="line2d_5">
      <g>
       <use xlink:href="#m2a8775adfe" x="221.4" y="252" style="stroke: #000000; stroke-width: 0.8"/>
      </g>
     </g>
     <g id="text_5">
      <!-- 2.0 -->
      <g transform="translate(213.448438 266.598437)scale(0.1 -0.1)">
       <defs>
        <path id="DejaVuSans-32" d="M 1228 531 
L 3431 531 
L 3431 0 
L 469 0 
L 469 531 
Q 828 903 1448 1529 
Q 2069 2156 2228 2338 
Q 2531 2678 2651 2914 
Q 2772 3150 2772 3378 
Q 2772 3750 2511 3984 
Q 2250 4219 1831 4219 
Q 1534 4219 1204 4116 
Q 875 4013 500 3803 
L 500 4441 
Q 881 4594 1212 4672 
Q 1544 4750 1819 4750 
Q 2544 4750 2975 4387 
Q 3406 4025 3406 3419 
Q 3406 3131 3298 2873 
Q 3191 2616 2906 2266 
Q 2828 2175 2409 1742 
Q 1991 1309 1228 531 
z
" transform="scale(0.015625)"/>
       </defs>
       <use xlink:href="#DejaVuSans-32"/>
       <use xlink:href="#DejaVuSans-2e" x="63.623047"/>
       <use xlink:href="#DejaVuSans-30" x="95.410156"/>
      </g>
     </g>
    </g>
    <g id="xtick_6">
     <g id="line2d_6">
      <g>
       <use xlink:href="#m2a8775adfe" x="263.25" y="252" style="stroke: #000000; stroke-width: 0.8"/>
      </g>
     </g>
     <g id="text_6">
      <!-- 2.5 -->
      <g transform="translate(255.298438 266.598437)scale(0.1 -0.1)">
       <use xlink:href="#DejaVuSans-32"/>
       <use xlink:href="#DejaVuSans-2e" x="63.623047"/>
       <use xlink:href="#DejaVuSans-35" x="95.410156"/>
      </g>
     </g>
    </g>
    <g id="xtick_7">
     <g id="line2d_7">
      <g>
       <use xlink:href="#m2a8775adfe" x="305.1" y="252" style="stroke: #000000; stroke-width: 0.8"/>
      </g>
     </g>
     <g id="text_7">
      <!-- 3.0 -->
      <g transform="translate(297.148438 266.598437)scale(0.1 -0.1)">
       <defs>
        <path id="DejaVuSans-33" d="M 2597 2516 
Q 3050 2419 3304 2112 
Q 3559 1806 3559 1356 
Q 3559 666 3084 287 
Q 2609 -91 1734 -91 
Q 1441 -91 1130 -33 
Q 819 25 488 141 
L 488 750 
Q 750 597 1062 519 
Q 1375 441 1716 441 
Q 2309 441 2620 675 
Q 2931 909 2931 1356 
Q 2931 1769 2642 2001 
Q 2353 2234 1838 2234 
L 1294 2234 
L 1294 2753 
L 1863 2753 
Q 2328 2753 2575 2939 
Q 2822 3125 2822 3475 
Q 2822 3834 2567 4026 
Q 2313 4219 1838 4219 
Q 1578 4219 1281 4162 
Q 984 4106 628 3988 
L 628 4550 
Q 988 4650 1302 4700 
Q 1616 4750 1894 4750 
Q 2613 4750 3031 4423 
Q 3450 4097 3450 3541 
Q 3450 3153 3228 2886 
Q 3006 2619 2597 2516 
z
" transform="scale(0.015625)"/>
       </defs>
       <use xlink:href="#DejaVuSans-33"/>
       <use xlink:href="#DejaVuSans-2e" x="63.623047"/>
       <use xlink:href="#DejaVuSans-30" x="95.410156"/>
      </g>
     </g>
    </g>
    <g id="xtick_8">
     <g id="line2d_8">
      <g>
       <use xlink:href="#m2a8775adfe" x="346.95" y="252" style="stroke: #000000; stroke-width: 0.8"/>
      </g>
     </g>
     <g id="text_8">
      <!-- 3.5 -->
      <g transform="translate(338.998437 266.598437)scale(0.1 -0.1)">
       <use xlink:href="#DejaVuSans-33"/>
       <use xlink:href="#DejaVuSans-2e" x="63.623047"/>
       <use xlink:href="#DejaVuSans-35" x="95.410156"/>
      </g>
     </g>
    </g>
    <g id="xtick_9">
     <g id="line2d_9">
      <g>
       <use xlink:href="#m2a8775adfe" x="388.8" y="252" style="stroke: #000000; stroke-width: 0.8"/>
      </g>
     </g>
     <g id="text_9">
      <!-- 4.0 -->
      <g transform="translate(380.848437 266.598437)scale(0.1 -0.1)">
       <defs>
        <path id="DejaVuSans-34" d="M 2419 4116 
L 825 1625 
L 2419 1625 
L 2419 4116 
z
M 2253 4666 
L 3047 4666 
L 3047 1625 
L 3713 1625 
L 3713 1100 
L 3047 1100 
L 3047 0 
L 2419 0 
L 2419 1100 
L 313 1100 
L 313 1709 
L 2253 4666 
z
" transform="scale(0.015625)"/>
       </defs>
       <use xlink:href="#DejaVuSans-34"/>
       <use xlink:href="#DejaVuSans-2e" x="63.623047"/>
       <use xlink:href="#DejaVuSans-30" x="95.410156"/>
      </g>
     </g>
    </g>
    <g id="text_10">
     <!-- fold change -->
     <g transform="translate(192.026563 280.276563)scale(0.1 -0.1)">
      <defs>
       <path id="DejaVuSans-66" d="M 2375 4863 
L 2375 4384 
L 1825 4384 
Q 1516 4384 1395 4259 
Q 1275 4134 1275 3809 
L 1275 3500 
L 2222 3500 
L 2222 3053 
L 1275 3053 
L 1275 0 
L 697 0 
L 697 3053 
L 147 3053 
L 147 3500 
L 697 3500 
L 697 3744 
Q 697 4328 969 4595 
Q 1241 4863 1831 4863 
L 2375 4863 
z
" transform="scale(0.015625)"/>
       <path id="DejaVuSans-6f" d="M 1959 3097 
Q 1497 3097 1228 2736 
Q 959 2375 959 1747 
Q 959 1119 1226 758 
Q 1494 397 1959 397 
Q 2419 397 2687 759 
Q 2956 1122 2956 1747 
Q 2956 2369 2687 2733 
Q 2419 3097 1959 3097 
z
M 1959 3584 
Q 2709 3584 3137 3096 
Q 3566 2609 3566 1747 
Q 3566 888 3137 398 
Q 2709 -91 1959 -91 
Q 1206 -91 779 398 
Q 353 888 353 1747 
Q 353 2609 779 3096 
Q 1206 3584 1959 3584 
z
" transform="scale(0.015625)"/>
       <path id="DejaVuSans-6c" d="M 603 4863 
L 1178 4863 
L 1178 0 
L 603 0 
L 603 4863 
z
" transform="scale(0.015625)"/>
       <path id="DejaVuSans-64" d="M 2906 2969 
L 2906 4863 
L 3481 4863 
L 3481 0 
L 2906 0 
L 2906 525 
Q 2725 213 2448 61 
Q 2172 -91 1784 -91 
Q 1150 -91 751 415 
Q 353 922 353 1747 
Q 353 2572 751 3078 
Q 1150 3584 1784 3584 
Q 2172 3584 2448 3432 
Q 2725 3281 2906 2969 
z
M 947 1747 
Q 947 1113 1208 752 
Q 1469 391 1925 391 
Q 2381 391 2643 752 
Q 2906 1113 2906 1747 
Q 2906 2381 2643 2742 
Q 2381 3103 1925 3103 
Q 1469 3103 1208 2742 
Q 947 2381 947 1747 
z
" transform="scale(0.015625)"/>
       <path id="DejaVuSans-20" transform="scale(0.015625)"/>
       <path id="DejaVuSans-63" d="M 3122 3366 
L 3122 2828 
Q 2878 2963 2633 3030 
Q 2388 3097 2138 3097 
Q 1578 3097 1268 2742 
Q 959 2388 959 1747 
Q 959 1106 1268 751 
Q 1578 397 2138 397 
Q 2388 397 2633 464 
Q 2878 531 3122 666 
L 3122 134 
Q 2881 22 2623 -34 
Q 2366 -91 2075 -91 
Q 1284 -91 818 406 
Q 353 903 353 1747 
Q 353 2603 823 3093 
Q 1294 3584 2113 3584 
Q 2378 3584 2631 3529 
Q 2884 3475 3122 3366 
z
" transform="scale(0.015625)"/>
       <path id="DejaVuSans-68" d="M 3513 2113 
L 3513 0 
L 2938 0 
L 2938 2094 
Q 2938 2591 2744 2837 
Q 2550 3084 2163 3084 
Q 1697 3084 1428 2787 
Q 1159 2491 1159 1978 
L 1159 0 
L 581 0 
L 581 4863 
L 1159 4863 
L 1159 2956 
Q 1366 3272 1645 3428 
Q 1925 3584 2291 3584 
Q 2894 3584 3203 3211 
Q 3513 2838 3513 2113 
z
" transform="scale(0.015625)"/>
       <path id="DejaVuSans-61" d="M 2194 1759 
Q 1497 1759 1228 1600 
Q 959 1441 959 1056 
Q 959 750 1161 570 
Q 1363 391 1709 391 
Q 2188 391 2477 730 
Q 2766 1069 2766 1631 
L 2766 1759 
L 2194 1759 
z
M 3341 1997 
L 3341 0 
L 2766 0 
L 2766 531 
Q 2569 213 2275 61 
Q 1981 -91 1556 -91 
Q 1019 -91 701 211 
Q 384 513 384 1019 
Q 384 1609 779 1909 
Q 1175 2209 1959 2209 
L 2766 2209 
L 2766 2266 
Q 2766 2663 2505 2880 
Q 2244 3097 1772 3097 
Q 1472 3097 1187 3025 
Q 903 2953 641 2809 
L 641 3341 
Q 956 3463 1253 3523 
Q 1550 3584 1831 3584 
Q 2591 3584 2966 3190 
Q 3341 2797 3341 1997 
z
" transform="scale(0.015625)"/>
       <path id="DejaVuSans-6e" d="M 3513 2113 
L 3513 0 
L 2938 0 
L 2938 2094 
Q 2938 2591 2744 2837 
Q 2550 3084 2163 3084 
Q 1697 3084 1428 2787 
Q 1159 2491 1159 1978 
L 1159 0 
L 581 0 
L 581 3500 
L 1159 3500 
L 1159 2956 
Q 1366 3272 1645 3428 
Q 1925 3584 2291 3584 
Q 2894 3584 3203 3211 
Q 3513 2838 3513 2113 
z
" transform="scale(0.015625)"/>
       <path id="DejaVuSans-67" d="M 2906 1791 
Q 2906 2416 2648 2759 
Q 2391 3103 1925 3103 
Q 1463 3103 1205 2759 
Q 947 2416 947 1791 
Q 947 1169 1205 825 
Q 1463 481 1925 481 
Q 2391 481 2648 825 
Q 2906 1169 2906 1791 
z
M 3481 434 
Q 3481 -459 3084 -895 
Q 2688 -1331 1869 -1331 
Q 1566 -1331 1297 -1286 
Q 1028 -1241 775 -1147 
L 775 -588 
Q 1028 -725 1275 -790 
Q 1522 -856 1778 -856 
Q 2344 -856 2625 -561 
Q 2906 -266 2906 331 
L 2906 616 
Q 2728 306 2450 153 
Q 2172 0 1784 0 
Q 1141 0 747 490 
Q 353 981 353 1791 
Q 353 2603 747 3093 
Q 1141 3584 1784 3584 
Q 2172 3584 2450 3431 
Q 2728 3278 2906 2969 
L 2906 3500 
L 3481 3500 
L 3481 434 
z
" transform="scale(0.015625)"/>
       <path id="DejaVuSans-65" d="M 3597 1894 
L 3597 1613 
L 953 1613 
Q 991 1019 1311 708 
Q 1631 397 2203 397 
Q 2534 397 2845 478 
Q 3156 559 3463 722 
L 3463 178 
Q 3153 47 2828 -22 
Q 2503 -91 2169 -91 
Q 1331 -91 842 396 
Q 353 884 353 1716 
Q 353 2575 817 3079 
Q 1281 3584 2069 3584 
Q 2775 3584 3186 3129 
Q 3597 2675 3597 1894 
z
M 3022 2063 
Q 3016 2534 2758 2815 
Q 2500 3097 2075 3097 
Q 1594 3097 1305 2825 
Q 1016 2553 972 2059 
L 3022 2063 
z
" transform="scale(0.015625)"/>
      </defs>
      <use xlink:href="#DejaVuSans-66"/>
      <use xlink:href="#DejaVuSans-6f" x="35.205078"/>
      <use xlink:href="#DejaVuSans-6c" x="96.386719"/>
      <use xlink:href="#DejaVuSans-64" x="124.169922"/>
      <use xlink:href="#DejaVuSans-20" x="187.646484"/>
      <use xlink:href="#DejaVuSans-63" x="219.433594"/>
      <use xlink:href="#DejaVuSans-68" x="274.414062"/>
      <use xlink:href="#DejaVuSans-61" x="337.792969"/>
      <use xlink:href="#DejaVuSans-6e" x="399.072266"/>
      <use xlink:href="#DejaVuSans-67" x="462.451172"/>
      <use xlink:href="#DejaVuSans-65" x="525.927734"/>
     </g>
    </g>
   </g>
   <g id="matplotlib.axis_2">
    <g id="ytick_1">
     <g id="line2d_10">
      <defs>
       <path id="maf40c1265a" d="M 0 0 
L -3.5 0 
" style="stroke: #000000; stroke-width: 0.8"/>
      </defs>
      <g>
       <use xlink:href="#maf40c1265a" x="54" y="252" style="stroke: #000000; stroke-width: 0.8"/>
      </g>
     </g>
     <g id="text_11">
      <!-- 0 -->
      <g transform="translate(40.6375 255.799219)scale(0.1 -0.1)">
       <use xlink:href="#DejaVuSans-30"/>
      </g>
     </g>
    </g>
    <g id="ytick_2">
     <g id="line2d_11">
      <g>
       <use xlink:href="#maf40c1265a" x="54" y="209.952139" style="stroke: #000000; stroke-width: 0.8"/>
      </g>
     </g>
     <g id="text_12">
      <!-- 5000 -->
      <g transform="translate(21.55 213.751358)scale(0.1 -0.1)">
       <use xlink:href="#DejaVuSans-35"/>
       <use xlink:href="#DejaVuSans-30" x="63.623047"/>
       <use xlink:href="#DejaVuSans-30" x="127.246094"/>
       <use xlink:href="#DejaVuSans-30" x="190.869141"/>
      </g>
     </g>
    </g>
    <g id="ytick_3">
     <g id="line2d_12">
      <g>
       <use xlink:href="#maf40c1265a" x="54" y="167.904278" style="stroke: #000000; stroke-width: 0.8"/>
      </g>
     </g>
     <g id="text_13">
      <!-- 10000 -->
      <g transform="translate(15.1875 171.703497)scale(0.1 -0.1)">
       <use xlink:href="#DejaVuSans-31"/>
       <use xlink:href="#DejaVuSans-30" x="63.623047"/>
       <use xlink:href="#DejaVuSans-30" x="127.246094"/>
       <use xlink:href="#DejaVuSans-30" x="190.869141"/>
       <use xlink:href="#DejaVuSans-30" x="254.492188"/>
      </g>
     </g>
    </g>
    <g id="ytick_4">
     <g id="line2d_13">
      <g>
       <use xlink:href="#maf40c1265a" x="54" y="125.856418" style="stroke: #000000; stroke-width: 0.8"/>
      </g>
     </g>
     <g id="text_14">
      <!-- 15000 -->
      <g transform="translate(15.1875 129.655636)scale(0.1 -0.1)">
       <use xlink:href="#DejaVuSans-31"/>
       <use xlink:href="#DejaVuSans-35" x="63.623047"/>
       <use xlink:href="#DejaVuSans-30" x="127.246094"/>
       <use xlink:href="#DejaVuSans-30" x="190.869141"/>
       <use xlink:href="#DejaVuSans-30" x="254.492188"/>
      </g>
     </g>
    </g>
    <g id="ytick_5">
     <g id="line2d_14">
      <g>
       <use xlink:href="#maf40c1265a" x="54" y="83.808557" style="stroke: #000000; stroke-width: 0.8"/>
      </g>
     </g>
     <g id="text_15">
      <!-- 20000 -->
      <g transform="translate(15.1875 87.607776)scale(0.1 -0.1)">
       <use xlink:href="#DejaVuSans-32"/>
       <use xlink:href="#DejaVuSans-30" x="63.623047"/>
       <use xlink:href="#DejaVuSans-30" x="127.246094"/>
       <use xlink:href="#DejaVuSans-30" x="190.869141"/>
       <use xlink:href="#DejaVuSans-30" x="254.492188"/>
      </g>
     </g>
    </g>
    <g id="ytick_6">
     <g id="line2d_15">
      <g>
       <use xlink:href="#maf40c1265a" x="54" y="41.760696" style="stroke: #000000; stroke-width: 0.8"/>
      </g>
     </g>
     <g id="text_16">
      <!-- 25000 -->
      <g transform="translate(15.1875 45.559915)scale(0.1 -0.1)">
       <use xlink:href="#DejaVuSans-32"/>
       <use xlink:href="#DejaVuSans-35" x="63.623047"/>
       <use xlink:href="#DejaVuSans-30" x="127.246094"/>
       <use xlink:href="#DejaVuSans-30" x="190.869141"/>
       <use xlink:href="#DejaVuSans-30" x="254.492188"/>
      </g>
     </g>
    </g>
    <g id="text_17">
     <!-- count -->
     <g transform="translate(9.107812 157.38625)rotate(-90)scale(0.1 -0.1)">
      <defs>
       <path id="DejaVuSans-75" d="M 544 1381 
L 544 3500 
L 1119 3500 
L 1119 1403 
Q 1119 906 1312 657 
Q 1506 409 1894 409 
Q 2359 409 2629 706 
Q 2900 1003 2900 1516 
L 2900 3500 
L 3475 3500 
L 3475 0 
L 2900 0 
L 2900 538 
Q 2691 219 2414 64 
Q 2138 -91 1772 -91 
Q 1169 -91 856 284 
Q 544 659 544 1381 
z
M 1991 3584 
L 1991 3584 
z
" transform="scale(0.015625)"/>
       <path id="DejaVuSans-74" d="M 1172 4494 
L 1172 3500 
L 2356 3500 
L 2356 3053 
L 1172 3053 
L 1172 1153 
Q 1172 725 1289 603 
Q 1406 481 1766 481 
L 2356 481 
L 2356 0 
L 1766 0 
Q 1100 0 847 248 
Q 594 497 594 1153 
L 594 3053 
L 172 3053 
L 172 3500 
L 594 3500 
L 594 4494 
L 1172 4494 
z
" transform="scale(0.015625)"/>
      </defs>
      <use xlink:href="#DejaVuSans-63"/>
      <use xlink:href="#DejaVuSans-6f" x="54.980469"/>
      <use xlink:href="#DejaVuSans-75" x="116.162109"/>
      <use xlink:href="#DejaVuSans-6e" x="179.541016"/>
      <use xlink:href="#DejaVuSans-74" x="242.919922"/>
     </g>
    </g>
   </g>
   <g id="patch_303">
    <path d="M 54 252 
L 54 34.56 
" style="fill: none; stroke: #000000; stroke-width: 0.8; stroke-linejoin: miter; stroke-linecap: square"/>
   </g>
   <g id="patch_304">
    <path d="M 388.8 252 
L 388.8 34.56 
" style="fill: none; stroke: #000000; stroke-width: 0.8; stroke-linejoin: miter; stroke-linecap: square"/>
   </g>
   <g id="patch_305">
    <path d="M 54 252 
L 388.8 252 
" style="fill: none; stroke: #000000; stroke-width: 0.8; stroke-linejoin: miter; stroke-linecap: square"/>
   </g>
   <g id="patch_306">
    <path d="M 54 34.56 
L 388.8 34.56 
" style="fill: none; stroke: #000000; stroke-width: 0.8; stroke-linejoin: miter; stroke-linecap: square"/>
   </g>
  </g>
 </g>
 <defs>
  <clipPath id="p4c91db9309">
   <rect x="54" y="34.56" width="334.8" height="217.44"/>
  </clipPath>
 </defs>
</svg>
