<?xml version="1.0" encoding="utf-8" standalone="no"?>
<!DOCTYPE svg PUBLIC "-//W3C//DTD SVG 1.1//EN"
  "http://www.w3.org/Graphics/SVG/1.1/DTD/svg11.dtd">
<svg xmlns:xlink="http://www.w3.org/1999/xlink" width="432pt" height="288pt" viewBox="0 0 432 288" xmlns="http://www.w3.org/2000/svg" version="1.1">
 <metadata>
  <rdf:RDF xmlns:dc="http://purl.org/dc/elements/1.1/" xmlns:cc="http://creativecommons.org/ns#" xmlns:rdf="http://www.w3.org/1999/02/22-rdf-syntax-ns#">
   <cc:Work>
    <dc:type rdf:resource="http://purl.org/dc/dcmitype/StillImage"/>
    <dc:date>2024-01-31T00:38:42.445295</dc:date>
    <dc:format>image/svg+xml</dc:format>
    <dc:creator>
     <cc:Agent>
      <dc:title>Matplotlib v3.5.1, https://matplotlib.org/</dc:title>
     </cc:Agent>
    </dc:creator>
   </cc:Work>
  </rdf:RDF>
 </metadata>
 <defs>
  <style type="text/css">*{stroke-linejoin: round; stroke-linecap: butt}</style>
 </defs>
 <g id="figure_1">
  <g id="patch_1">
   <path d="M 0 288 
L 432 288 
L 432 0 
L 0 0 
L 0 288 
z
" style="fill: none"/>
  </g>
  <g id="axes_1">
   <g id="patch_2">
    <path d="M 54 252 
L 388.8 252 
L 388.8 34.56 
L 54 34.56 
z
" style="fill: #ffffff"/>
   </g>
   <g id="patch_3">
    <path d="M -513.360921 252 
L -505.811363 252 
L -505.811363 251.987877 
L -513.360921 251.987877 
z
" clip-path="url(#p8979615bc1)" style="fill: #1f77b4"/>
   </g>
   <g id="patch_4">
    <path d="M -505.811363 252 
L -498.261805 252 
L -498.261805 252 
L -505.811363 252 
z
" clip-path="url(#p8979615bc1)" style="fill: #1f77b4"/>
   </g>
   <g id="patch_5">
    <path d="M -498.261805 252 
L -490.712246 252 
L -490.712246 252 
L -498.261805 252 
z
" clip-path="url(#p8979615bc1)" style="fill: #1f77b4"/>
   </g>
   <g id="patch_6">
    <path d="M -490.712246 252 
L -483.162688 252 
L -483.162688 251.987877 
L -490.712246 251.987877 
z
" clip-path="url(#p8979615bc1)" style="fill: #1f77b4"/>
   </g>
   <g id="patch_7">
    <path d="M -483.162688 252 
L -475.613129 252 
L -475.613129 252 
L -483.162688 252 
z
" clip-path="url(#p8979615bc1)" style="fill: #1f77b4"/>
   </g>
   <g id="patch_8">
    <path d="M -475.613129 252 
L -468.063571 252 
L -468.063571 252 
L -475.613129 252 
z
" clip-path="url(#p8979615bc1)" style="fill: #1f77b4"/>
   </g>
   <g id="patch_9">
    <path d="M -468.063571 252 
L -460.514013 252 
L -460.514013 251.987877 
L -468.063571 251.987877 
z
" clip-path="url(#p8979615bc1)" style="fill: #1f77b4"/>
   </g>
   <g id="patch_10">
    <path d="M -460.514013 252 
L -452.964454 252 
L -452.964454 251.987877 
L -460.514013 251.987877 
z
" clip-path="url(#p8979615bc1)" style="fill: #1f77b4"/>
   </g>
   <g id="patch_11">
    <path d="M -452.964454 252 
L -445.414896 252 
L -445.414896 251.963631 
L -452.964454 251.963631 
z
" clip-path="url(#p8979615bc1)" style="fill: #1f77b4"/>
   </g>
   <g id="patch_12">
    <path d="M -445.414896 252 
L -437.865337 252 
L -437.865337 251.975754 
L -445.414896 251.975754 
z
" clip-path="url(#p8979615bc1)" style="fill: #1f77b4"/>
   </g>
   <g id="patch_13">
    <path d="M -437.865337 252 
L -430.315779 252 
L -430.315779 251.987877 
L -437.865337 251.987877 
z
" clip-path="url(#p8979615bc1)" style="fill: #1f77b4"/>
   </g>
   <g id="patch_14">
    <path d="M -430.315779 252 
L -422.766221 252 
L -422.766221 252 
L -430.315779 252 
z
" clip-path="url(#p8979615bc1)" style="fill: #1f77b4"/>
   </g>
   <g id="patch_15">
    <path d="M -422.766221 252 
L -415.216662 252 
L -415.216662 251.987877 
L -422.766221 251.987877 
z
" clip-path="url(#p8979615bc1)" style="fill: #1f77b4"/>
   </g>
   <g id="patch_16">
    <path d="M -415.216662 252 
L -407.667104 252 
L -407.667104 251.975754 
L -415.216662 251.975754 
z
" clip-path="url(#p8979615bc1)" style="fill: #1f77b4"/>
   </g>
   <g id="patch_17">
    <path d="M -407.667104 252 
L -400.117545 252 
L -400.117545 251.975754 
L -407.667104 251.975754 
z
" clip-path="url(#p8979615bc1)" style="fill: #1f77b4"/>
   </g>
   <g id="patch_18">
    <path d="M -400.117545 252 
L -392.567987 252 
L -392.567987 251.975754 
L -400.117545 251.975754 
z
" clip-path="url(#p8979615bc1)" style="fill: #1f77b4"/>
   </g>
   <g id="patch_19">
    <path d="M -392.567987 252 
L -385.018429 252 
L -385.018429 252 
L -392.567987 252 
z
" clip-path="url(#p8979615bc1)" style="fill: #1f77b4"/>
   </g>
   <g id="patch_20">
    <path d="M -385.018429 252 
L -377.46887 252 
L -377.46887 251.987877 
L -385.018429 251.987877 
z
" clip-path="url(#p8979615bc1)" style="fill: #1f77b4"/>
   </g>
   <g id="patch_21">
    <path d="M -377.46887 252 
L -369.919312 252 
L -369.919312 252 
L -377.46887 252 
z
" clip-path="url(#p8979615bc1)" style="fill: #1f77b4"/>
   </g>
   <g id="patch_22">
    <path d="M -369.919312 252 
L -362.369753 252 
L -362.369753 251.987877 
L -369.919312 251.987877 
z
" clip-path="url(#p8979615bc1)" style="fill: #1f77b4"/>
   </g>
   <g id="patch_23">
    <path d="M -362.369753 252 
L -354.820195 252 
L -354.820195 251.951508 
L -362.369753 251.951508 
z
" clip-path="url(#p8979615bc1)" style="fill: #1f77b4"/>
   </g>
   <g id="patch_24">
    <path d="M -354.820195 252 
L -347.270636 252 
L -347.270636 251.987877 
L -354.820195 251.987877 
z
" clip-path="url(#p8979615bc1)" style="fill: #1f77b4"/>
   </g>
   <g id="patch_25">
    <path d="M -347.270636 252 
L -339.721078 252 
L -339.721078 251.915139 
L -347.270636 251.915139 
z
" clip-path="url(#p8979615bc1)" style="fill: #1f77b4"/>
   </g>
   <g id="patch_26">
    <path d="M -339.721078 252 
L -332.17152 252 
L -332.17152 251.963631 
L -339.721078 251.963631 
z
" clip-path="url(#p8979615bc1)" style="fill: #1f77b4"/>
   </g>
   <g id="patch_27">
    <path d="M -332.17152 252 
L -324.621961 252 
L -324.621961 251.939385 
L -332.17152 251.939385 
z
" clip-path="url(#p8979615bc1)" style="fill: #1f77b4"/>
   </g>
   <g id="patch_28">
    <path d="M -324.621961 252 
L -317.072403 252 
L -317.072403 251.939385 
L -324.621961 251.939385 
z
" clip-path="url(#p8979615bc1)" style="fill: #1f77b4"/>
   </g>
   <g id="patch_29">
    <path d="M -317.072403 252 
L -309.522844 252 
L -309.522844 251.939385 
L -317.072403 251.939385 
z
" clip-path="url(#p8979615bc1)" style="fill: #1f77b4"/>
   </g>
   <g id="patch_30">
    <path d="M -309.522844 252 
L -301.973286 252 
L -301.973286 251.963631 
L -309.522844 251.963631 
z
" clip-path="url(#p8979615bc1)" style="fill: #1f77b4"/>
   </g>
   <g id="patch_31">
    <path d="M -301.973286 252 
L -294.423728 252 
L -294.423728 251.890893 
L -301.973286 251.890893 
z
" clip-path="url(#p8979615bc1)" style="fill: #1f77b4"/>
   </g>
   <g id="patch_32">
    <path d="M -294.423728 252 
L -286.874169 252 
L -286.874169 251.890893 
L -294.423728 251.890893 
z
" clip-path="url(#p8979615bc1)" style="fill: #1f77b4"/>
   </g>
   <g id="patch_33">
    <path d="M -286.874169 252 
L -279.324611 252 
L -279.324611 251.939385 
L -286.874169 251.939385 
z
" clip-path="url(#p8979615bc1)" style="fill: #1f77b4"/>
   </g>
   <g id="patch_34">
    <path d="M -279.324611 252 
L -271.775052 252 
L -271.775052 251.951508 
L -279.324611 251.951508 
z
" clip-path="url(#p8979615bc1)" style="fill: #1f77b4"/>
   </g>
   <g id="patch_35">
    <path d="M -271.775052 252 
L -264.225494 252 
L -264.225494 251.927262 
L -271.775052 251.927262 
z
" clip-path="url(#p8979615bc1)" style="fill: #1f77b4"/>
   </g>
   <g id="patch_36">
    <path d="M -264.225494 252 
L -256.675936 252 
L -256.675936 251.903016 
L -264.225494 251.903016 
z
" clip-path="url(#p8979615bc1)" style="fill: #1f77b4"/>
   </g>
   <g id="patch_37">
    <path d="M -256.675936 252 
L -249.126377 252 
L -249.126377 251.975754 
L -256.675936 251.975754 
z
" clip-path="url(#p8979615bc1)" style="fill: #1f77b4"/>
   </g>
   <g id="patch_38">
    <path d="M -249.126377 252 
L -241.576819 252 
L -241.576819 251.915139 
L -249.126377 251.915139 
z
" clip-path="url(#p8979615bc1)" style="fill: #1f77b4"/>
   </g>
   <g id="patch_39">
    <path d="M -241.576819 252 
L -234.02726 252 
L -234.02726 251.987877 
L -241.576819 251.987877 
z
" clip-path="url(#p8979615bc1)" style="fill: #1f77b4"/>
   </g>
   <g id="patch_40">
    <path d="M -234.02726 252 
L -226.477702 252 
L -226.477702 251.939385 
L -234.02726 251.939385 
z
" clip-path="url(#p8979615bc1)" style="fill: #1f77b4"/>
   </g>
   <g id="patch_41">
    <path d="M -226.477702 252 
L -218.928144 252 
L -218.928144 251.915139 
L -226.477702 251.915139 
z
" clip-path="url(#p8979615bc1)" style="fill: #1f77b4"/>
   </g>
   <g id="patch_42">
    <path d="M -218.928144 252 
L -211.378585 252 
L -211.378585 251.842401 
L -218.928144 251.842401 
z
" clip-path="url(#p8979615bc1)" style="fill: #1f77b4"/>
   </g>
   <g id="patch_43">
    <path d="M -211.378585 252 
L -203.829027 252 
L -203.829027 251.939385 
L -211.378585 251.939385 
z
" clip-path="url(#p8979615bc1)" style="fill: #1f77b4"/>
   </g>
   <g id="patch_44">
    <path d="M -203.829027 252 
L -196.279468 252 
L -196.279468 251.87877 
L -203.829027 251.87877 
z
" clip-path="url(#p8979615bc1)" style="fill: #1f77b4"/>
   </g>
   <g id="patch_45">
    <path d="M -196.279468 252 
L -188.72991 252 
L -188.72991 251.890893 
L -196.279468 251.890893 
z
" clip-path="url(#p8979615bc1)" style="fill: #1f77b4"/>
   </g>
   <g id="patch_46">
    <path d="M -188.72991 252 
L -181.180352 252 
L -181.180352 251.87877 
L -188.72991 251.87877 
z
" clip-path="url(#p8979615bc1)" style="fill: #1f77b4"/>
   </g>
   <g id="patch_47">
    <path d="M -181.180352 252 
L -173.630793 252 
L -173.630793 251.939385 
L -181.180352 251.939385 
z
" clip-path="url(#p8979615bc1)" style="fill: #1f77b4"/>
   </g>
   <g id="patch_48">
    <path d="M -173.630793 252 
L -166.081235 252 
L -166.081235 251.890893 
L -173.630793 251.890893 
z
" clip-path="url(#p8979615bc1)" style="fill: #1f77b4"/>
   </g>
   <g id="patch_49">
    <path d="M -166.081235 252 
L -158.531676 252 
L -158.531676 251.915139 
L -166.081235 251.915139 
z
" clip-path="url(#p8979615bc1)" style="fill: #1f77b4"/>
   </g>
   <g id="patch_50">
    <path d="M -158.531676 252 
L -150.982118 252 
L -150.982118 251.830277 
L -158.531676 251.830277 
z
" clip-path="url(#p8979615bc1)" style="fill: #1f77b4"/>
   </g>
   <g id="patch_51">
    <path d="M -150.982118 252 
L -143.43256 252 
L -143.43256 251.915139 
L -150.982118 251.915139 
z
" clip-path="url(#p8979615bc1)" style="fill: #1f77b4"/>
   </g>
   <g id="patch_52">
    <path d="M -143.43256 252 
L -135.883001 252 
L -135.883001 251.927262 
L -143.43256 251.927262 
z
" clip-path="url(#p8979615bc1)" style="fill: #1f77b4"/>
   </g>
   <g id="patch_53">
    <path d="M -135.883001 252 
L -128.333443 252 
L -128.333443 251.987877 
L -135.883001 251.987877 
z
" clip-path="url(#p8979615bc1)" style="fill: #1f77b4"/>
   </g>
   <g id="patch_54">
    <path d="M -128.333443 252 
L -120.783884 252 
L -120.783884 251.927262 
L -128.333443 251.927262 
z
" clip-path="url(#p8979615bc1)" style="fill: #1f77b4"/>
   </g>
   <g id="patch_55">
    <path d="M -120.783884 252 
L -113.234326 252 
L -113.234326 251.927262 
L -120.783884 251.927262 
z
" clip-path="url(#p8979615bc1)" style="fill: #1f77b4"/>
   </g>
   <g id="patch_56">
    <path d="M -113.234326 252 
L -105.684767 252 
L -105.684767 251.963631 
L -113.234326 251.963631 
z
" clip-path="url(#p8979615bc1)" style="fill: #1f77b4"/>
   </g>
   <g id="patch_57">
    <path d="M -105.684767 252 
L -98.135209 252 
L -98.135209 251.951508 
L -105.684767 251.951508 
z
" clip-path="url(#p8979615bc1)" style="fill: #1f77b4"/>
   </g>
   <g id="patch_58">
    <path d="M -98.135209 252 
L -90.585651 252 
L -90.585651 251.866647 
L -98.135209 251.866647 
z
" clip-path="url(#p8979615bc1)" style="fill: #1f77b4"/>
   </g>
   <g id="patch_59">
    <path d="M -90.585651 252 
L -83.036092 252 
L -83.036092 251.890893 
L -90.585651 251.890893 
z
" clip-path="url(#p8979615bc1)" style="fill: #1f77b4"/>
   </g>
   <g id="patch_60">
    <path d="M -83.036092 252 
L -75.486534 252 
L -75.486534 251.87877 
L -83.036092 251.87877 
z
" clip-path="url(#p8979615bc1)" style="fill: #1f77b4"/>
   </g>
   <g id="patch_61">
    <path d="M -75.486534 252 
L -67.936975 252 
L -67.936975 251.87877 
L -75.486534 251.87877 
z
" clip-path="url(#p8979615bc1)" style="fill: #1f77b4"/>
   </g>
   <g id="patch_62">
    <path d="M -67.936975 252 
L -60.387417 252 
L -60.387417 251.793908 
L -67.936975 251.793908 
z
" clip-path="url(#p8979615bc1)" style="fill: #1f77b4"/>
   </g>
   <g id="patch_63">
    <path d="M -60.387417 252 
L -52.837859 252 
L -52.837859 251.915139 
L -60.387417 251.915139 
z
" clip-path="url(#p8979615bc1)" style="fill: #1f77b4"/>
   </g>
   <g id="patch_64">
    <path d="M -52.837859 252 
L -45.2883 252 
L -45.2883 251.87877 
L -52.837859 251.87877 
z
" clip-path="url(#p8979615bc1)" style="fill: #1f77b4"/>
   </g>
   <g id="patch_65">
    <path d="M -45.2883 252 
L -37.738742 252 
L -37.738742 251.769662 
L -45.2883 251.769662 
z
" clip-path="url(#p8979615bc1)" style="fill: #1f77b4"/>
   </g>
   <g id="patch_66">
    <path d="M -37.738742 252 
L -30.189183 252 
L -30.189183 251.854524 
L -37.738742 251.854524 
z
" clip-path="url(#p8979615bc1)" style="fill: #1f77b4"/>
   </g>
   <g id="patch_67">
    <path d="M -30.189183 252 
L -22.639625 252 
L -22.639625 251.769662 
L -30.189183 251.769662 
z
" clip-path="url(#p8979615bc1)" style="fill: #1f77b4"/>
   </g>
   <g id="patch_68">
    <path d="M -22.639625 252 
L -15.090067 252 
L -15.090067 251.672678 
L -22.639625 251.672678 
z
" clip-path="url(#p8979615bc1)" style="fill: #1f77b4"/>
   </g>
   <g id="patch_69">
    <path d="M -15.090067 252 
L -7.540508 252 
L -7.540508 251.563571 
L -15.090067 251.563571 
z
" clip-path="url(#p8979615bc1)" style="fill: #1f77b4"/>
   </g>
   <g id="patch_70">
    <path d="M -7.540508 252 
L 0.00905 252 
L 0.00905 251.648432 
L -7.540508 251.648432 
z
" clip-path="url(#p8979615bc1)" style="fill: #1f77b4"/>
   </g>
   <g id="patch_71">
    <path d="M 0.00905 252 
L 7.558609 252 
L 7.558609 251.745416 
L 0.00905 251.745416 
z
" clip-path="url(#p8979615bc1)" style="fill: #1f77b4"/>
   </g>
   <g id="patch_72">
    <path d="M 7.558609 252 
L 15.108167 252 
L 15.108167 251.551448 
L 7.558609 251.551448 
z
" clip-path="url(#p8979615bc1)" style="fill: #1f77b4"/>
   </g>
   <g id="patch_73">
    <path d="M 15.108167 252 
L 22.657725 252 
L 22.657725 251.19988 
L 15.108167 251.19988 
z
" clip-path="url(#p8979615bc1)" style="fill: #1f77b4"/>
   </g>
   <g id="patch_74">
    <path d="M 22.657725 252 
L 30.207284 252 
L 30.207284 251.539325 
L 22.657725 251.539325 
z
" clip-path="url(#p8979615bc1)" style="fill: #1f77b4"/>
   </g>
   <g id="patch_75">
    <path d="M 30.207284 252 
L 37.756842 252 
L 37.756842 251.187757 
L 30.207284 251.187757 
z
" clip-path="url(#p8979615bc1)" style="fill: #1f77b4"/>
   </g>
   <g id="patch_76">
    <path d="M 37.756842 252 
L 45.306401 252 
L 45.306401 251.054403 
L 37.756842 251.054403 
z
" clip-path="url(#p8979615bc1)" style="fill: #1f77b4"/>
   </g>
   <g id="patch_77">
    <path d="M 45.306401 252 
L 52.855959 252 
L 52.855959 250.860435 
L 45.306401 250.860435 
z
" clip-path="url(#p8979615bc1)" style="fill: #1f77b4"/>
   </g>
   <g id="patch_78">
    <path d="M 52.855959 252 
L 60.405517 252 
L 60.405517 250.727081 
L 52.855959 250.727081 
z
" clip-path="url(#p8979615bc1)" style="fill: #1f77b4"/>
   </g>
   <g id="patch_79">
    <path d="M 60.405517 252 
L 67.955076 252 
L 67.955076 250.120929 
L 60.405517 250.120929 
z
" clip-path="url(#p8979615bc1)" style="fill: #1f77b4"/>
   </g>
   <g id="patch_80">
    <path d="M 67.955076 252 
L 75.504634 252 
L 75.504634 249.854222 
L 67.955076 249.854222 
z
" clip-path="url(#p8979615bc1)" style="fill: #1f77b4"/>
   </g>
   <g id="patch_81">
    <path d="M 75.504634 252 
L 83.054193 252 
L 83.054193 249.357178 
L 75.504634 249.357178 
z
" clip-path="url(#p8979615bc1)" style="fill: #1f77b4"/>
   </g>
   <g id="patch_82">
    <path d="M 83.054193 252 
L 90.603751 252 
L 90.603751 248.423704 
L 83.054193 248.423704 
z
" clip-path="url(#p8979615bc1)" style="fill: #1f77b4"/>
   </g>
   <g id="patch_83">
    <path d="M 90.603751 252 
L 98.153309 252 
L 98.153309 248.023644 
L 90.603751 248.023644 
z
" clip-path="url(#p8979615bc1)" style="fill: #1f77b4"/>
   </g>
   <g id="patch_84">
    <path d="M 98.153309 252 
L 105.702868 252 
L 105.702868 245.683898 
L 98.153309 245.683898 
z
" clip-path="url(#p8979615bc1)" style="fill: #1f77b4"/>
   </g>
   <g id="patch_85">
    <path d="M 105.702868 252 
L 113.252426 252 
L 113.252426 243.950304 
L 105.702868 243.950304 
z
" clip-path="url(#p8979615bc1)" style="fill: #1f77b4"/>
   </g>
   <g id="patch_86">
    <path d="M 113.252426 252 
L 120.801985 252 
L 120.801985 241.950003 
L 113.252426 241.950003 
z
" clip-path="url(#p8979615bc1)" style="fill: #1f77b4"/>
   </g>
   <g id="patch_87">
    <path d="M 120.801985 252 
L 128.351543 252 
L 128.351543 240.277023 
L 120.801985 240.277023 
z
" clip-path="url(#p8979615bc1)" style="fill: #1f77b4"/>
   </g>
   <g id="patch_88">
    <path d="M 128.351543 252 
L 135.901101 252 
L 135.901101 235.839992 
L 128.351543 235.839992 
z
" clip-path="url(#p8979615bc1)" style="fill: #1f77b4"/>
   </g>
   <g id="patch_89">
    <path d="M 135.901101 252 
L 143.45066 252 
L 143.45066 227.499343 
L 135.901101 227.499343 
z
" clip-path="url(#p8979615bc1)" style="fill: #1f77b4"/>
   </g>
   <g id="patch_90">
    <path d="M 143.45066 252 
L 151.000218 252 
L 151.000218 226.820453 
L 143.45066 226.820453 
z
" clip-path="url(#p8979615bc1)" style="fill: #1f77b4"/>
   </g>
   <g id="patch_91">
    <path d="M 151.000218 252 
L 158.549777 252 
L 158.549777 211.363581 
L 151.000218 211.363581 
z
" clip-path="url(#p8979615bc1)" style="fill: #1f77b4"/>
   </g>
   <g id="patch_92">
    <path d="M 158.549777 252 
L 166.099335 252 
L 166.099335 202.986562 
L 158.549777 202.986562 
z
" clip-path="url(#p8979615bc1)" style="fill: #1f77b4"/>
   </g>
   <g id="patch_93">
    <path d="M 166.099335 252 
L 173.648894 252 
L 173.648894 189.336023 
L 166.099335 189.336023 
z
" clip-path="url(#p8979615bc1)" style="fill: #1f77b4"/>
   </g>
   <g id="patch_94">
    <path d="M 173.648894 252 
L 181.198452 252 
L 181.198452 168.896583 
L 173.648894 168.896583 
z
" clip-path="url(#p8979615bc1)" style="fill: #1f77b4"/>
   </g>
   <g id="patch_95">
    <path d="M 181.198452 252 
L 188.74801 252 
L 188.74801 143.547313 
L 181.198452 143.547313 
z
" clip-path="url(#p8979615bc1)" style="fill: #1f77b4"/>
   </g>
   <g id="patch_96">
    <path d="M 188.74801 252 
L 196.297569 252 
L 196.297569 123.871624 
L 188.74801 123.871624 
z
" clip-path="url(#p8979615bc1)" style="fill: #1f77b4"/>
   </g>
   <g id="patch_97">
    <path d="M 196.297569 252 
L 203.847127 252 
L 203.847127 90.327181 
L 196.297569 90.327181 
z
" clip-path="url(#p8979615bc1)" style="fill: #1f77b4"/>
   </g>
   <g id="patch_98">
    <path d="M 203.847127 252 
L 211.396686 252 
L 211.396686 70.166571 
L 203.847127 70.166571 
z
" clip-path="url(#p8979615bc1)" style="fill: #1f77b4"/>
   </g>
   <g id="patch_99">
    <path d="M 211.396686 252 
L 218.946244 252 
L 218.946244 51.872909 
L 211.396686 51.872909 
z
" clip-path="url(#p8979615bc1)" style="fill: #1f77b4"/>
   </g>
   <g id="patch_100">
    <path d="M 218.946244 252 
L 226.495802 252 
L 226.495802 44.914286 
L 218.946244 44.914286 
z
" clip-path="url(#p8979615bc1)" style="fill: #1f77b4"/>
   </g>
   <g id="patch_101">
    <path d="M 226.495802 252 
L 234.045361 252 
L 234.045361 49.933223 
L 226.495802 49.933223 
z
" clip-path="url(#p8979615bc1)" style="fill: #1f77b4"/>
   </g>
   <g id="patch_102">
    <path d="M 234.045361 252 
L 241.594919 252 
L 241.594919 68.239008 
L 234.045361 68.239008 
z
" clip-path="url(#p8979615bc1)" style="fill: #1f77b4"/>
   </g>
   <g id="patch_103">
    <path d="M 241.594919 252 
L 249.144478 252 
L 249.144478 87.878328 
L 241.594919 87.878328 
z
" clip-path="url(#p8979615bc1)" style="fill: #1f77b4"/>
   </g>
   <g id="patch_104">
    <path d="M 249.144478 252 
L 256.694036 252 
L 256.694036 116.197742 
L 249.144478 116.197742 
z
" clip-path="url(#p8979615bc1)" style="fill: #1f77b4"/>
   </g>
   <g id="patch_105">
    <path d="M 256.694036 252 
L 264.243594 252 
L 264.243594 141.825842 
L 256.694036 141.825842 
z
" clip-path="url(#p8979615bc1)" style="fill: #1f77b4"/>
   </g>
   <g id="patch_106">
    <path d="M 264.243594 252 
L 271.793153 252 
L 271.793153 170.460455 
L 264.243594 170.460455 
z
" clip-path="url(#p8979615bc1)" style="fill: #1f77b4"/>
   </g>
   <g id="patch_107">
    <path d="M 271.793153 252 
L 279.342711 252 
L 279.342711 184.717146 
L 271.793153 184.717146 
z
" clip-path="url(#p8979615bc1)" style="fill: #1f77b4"/>
   </g>
   <g id="patch_108">
    <path d="M 279.342711 252 
L 286.89227 252 
L 286.89227 204.720157 
L 279.342711 204.720157 
z
" clip-path="url(#p8979615bc1)" style="fill: #1f77b4"/>
   </g>
   <g id="patch_109">
    <path d="M 286.89227 252 
L 294.441828 252 
L 294.441828 214.321602 
L 286.89227 214.321602 
z
" clip-path="url(#p8979615bc1)" style="fill: #1f77b4"/>
   </g>
   <g id="patch_110">
    <path d="M 294.441828 252 
L 301.991386 252 
L 301.991386 224.965628 
L 294.441828 224.965628 
z
" clip-path="url(#p8979615bc1)" style="fill: #1f77b4"/>
   </g>
   <g id="patch_111">
    <path d="M 301.991386 252 
L 309.540945 252 
L 309.540945 234.457966 
L 301.991386 234.457966 
z
" clip-path="url(#p8979615bc1)" style="fill: #1f77b4"/>
   </g>
   <g id="patch_112">
    <path d="M 309.540945 252 
L 317.090503 252 
L 317.090503 236.59162 
L 309.540945 236.59162 
z
" clip-path="url(#p8979615bc1)" style="fill: #1f77b4"/>
   </g>
   <g id="patch_113">
    <path d="M 317.090503 252 
L 324.640062 252 
L 324.640062 242.022741 
L 317.090503 242.022741 
z
" clip-path="url(#p8979615bc1)" style="fill: #1f77b4"/>
   </g>
   <g id="patch_114">
    <path d="M 324.640062 252 
L 332.18962 252 
L 332.18962 244.423102 
L 324.640062 244.423102 
z
" clip-path="url(#p8979615bc1)" style="fill: #1f77b4"/>
   </g>
   <g id="patch_115">
    <path d="M 332.18962 252 
L 339.739178 252 
L 339.739178 246.229434 
L 332.18962 246.229434 
z
" clip-path="url(#p8979615bc1)" style="fill: #1f77b4"/>
   </g>
   <g id="patch_116">
    <path d="M 339.739178 252 
L 347.288737 252 
L 347.288737 248.532811 
L 339.739178 248.532811 
z
" clip-path="url(#p8979615bc1)" style="fill: #1f77b4"/>
   </g>
   <g id="patch_117">
    <path d="M 347.288737 252 
L 354.838295 252 
L 354.838295 248.253982 
L 347.288737 248.253982 
z
" clip-path="url(#p8979615bc1)" style="fill: #1f77b4"/>
   </g>
   <g id="patch_118">
    <path d="M 354.838295 252 
L 362.387854 252 
L 362.387854 250.023945 
L 354.838295 250.023945 
z
" clip-path="url(#p8979615bc1)" style="fill: #1f77b4"/>
   </g>
   <g id="patch_119">
    <path d="M 362.387854 252 
L 369.937412 252 
L 369.937412 250.617974 
L 362.387854 250.617974 
z
" clip-path="url(#p8979615bc1)" style="fill: #1f77b4"/>
   </g>
   <g id="patch_120">
    <path d="M 369.937412 252 
L 377.48697 252 
L 377.48697 251.005911 
L 369.937412 251.005911 
z
" clip-path="url(#p8979615bc1)" style="fill: #1f77b4"/>
   </g>
   <g id="patch_121">
    <path d="M 377.48697 252 
L 385.036529 252 
L 385.036529 250.884681 
L 377.48697 250.884681 
z
" clip-path="url(#p8979615bc1)" style="fill: #1f77b4"/>
   </g>
   <g id="patch_122">
    <path d="M 385.036529 252 
L 392.586087 252 
L 392.586087 251.757539 
L 385.036529 251.757539 
z
" clip-path="url(#p8979615bc1)" style="fill: #1f77b4"/>
   </g>
   <g id="patch_123">
    <path d="M 392.586087 252 
L 400.135646 252 
L 400.135646 251.345356 
L 392.586087 251.345356 
z
" clip-path="url(#p8979615bc1)" style="fill: #1f77b4"/>
   </g>
   <g id="patch_124">
    <path d="M 400.135646 252 
L 407.685204 252 
L 407.685204 251.624186 
L 400.135646 251.624186 
z
" clip-path="url(#p8979615bc1)" style="fill: #1f77b4"/>
   </g>
   <g id="patch_125">
    <path d="M 407.685204 252 
L 415.234762 252 
L 415.234762 251.842401 
L 407.685204 251.842401 
z
" clip-path="url(#p8979615bc1)" style="fill: #1f77b4"/>
   </g>
   <g id="patch_126">
    <path d="M 415.234762 252 
L 422.784321 252 
L 422.784321 251.745416 
L 415.234762 251.745416 
z
" clip-path="url(#p8979615bc1)" style="fill: #1f77b4"/>
   </g>
   <g id="patch_127">
    <path d="M 422.784321 252 
L 430.333879 252 
L 430.333879 251.87877 
L 422.784321 251.87877 
z
" clip-path="url(#p8979615bc1)" style="fill: #1f77b4"/>
   </g>
   <g id="patch_128">
    <path d="M 430.333879 252 
L 437.883438 252 
L 437.883438 251.866647 
L 430.333879 251.866647 
z
" clip-path="url(#p8979615bc1)" style="fill: #1f77b4"/>
   </g>
   <g id="patch_129">
    <path d="M 437.883438 252 
L 445.432996 252 
L 445.432996 251.951508 
L 437.883438 251.951508 
z
" clip-path="url(#p8979615bc1)" style="fill: #1f77b4"/>
   </g>
   <g id="patch_130">
    <path d="M 445.432996 252 
L 452.982555 252 
L 452.982555 251.963631 
L 445.432996 251.963631 
z
" clip-path="url(#p8979615bc1)" style="fill: #1f77b4"/>
   </g>
   <g id="patch_131">
    <path d="M 452.982555 252 
L 460.532113 252 
L 460.532113 251.951508 
L 452.982555 251.951508 
z
" clip-path="url(#p8979615bc1)" style="fill: #1f77b4"/>
   </g>
   <g id="patch_132">
    <path d="M 460.532113 252 
L 468.081671 252 
L 468.081671 251.915139 
L 460.532113 251.915139 
z
" clip-path="url(#p8979615bc1)" style="fill: #1f77b4"/>
   </g>
   <g id="patch_133">
    <path d="M 468.081671 252 
L 475.63123 252 
L 475.63123 251.975754 
L 468.081671 251.975754 
z
" clip-path="url(#p8979615bc1)" style="fill: #1f77b4"/>
   </g>
   <g id="patch_134">
    <path d="M 475.63123 252 
L 483.180788 252 
L 483.180788 251.987877 
L 475.63123 251.987877 
z
" clip-path="url(#p8979615bc1)" style="fill: #1f77b4"/>
   </g>
   <g id="patch_135">
    <path d="M 483.180788 252 
L 490.730347 252 
L 490.730347 252 
L 483.180788 252 
z
" clip-path="url(#p8979615bc1)" style="fill: #1f77b4"/>
   </g>
   <g id="patch_136">
    <path d="M 490.730347 252 
L 498.279905 252 
L 498.279905 252 
L 490.730347 252 
z
" clip-path="url(#p8979615bc1)" style="fill: #1f77b4"/>
   </g>
   <g id="patch_137">
    <path d="M 498.279905 252 
L 505.829463 252 
L 505.829463 251.975754 
L 498.279905 251.975754 
z
" clip-path="url(#p8979615bc1)" style="fill: #1f77b4"/>
   </g>
   <g id="patch_138">
    <path d="M 505.829463 252 
L 513.379022 252 
L 513.379022 252 
L 505.829463 252 
z
" clip-path="url(#p8979615bc1)" style="fill: #1f77b4"/>
   </g>
   <g id="patch_139">
    <path d="M 513.379022 252 
L 520.92858 252 
L 520.92858 251.987877 
L 513.379022 251.987877 
z
" clip-path="url(#p8979615bc1)" style="fill: #1f77b4"/>
   </g>
   <g id="patch_140">
    <path d="M 520.92858 252 
L 528.478139 252 
L 528.478139 252 
L 520.92858 252 
z
" clip-path="url(#p8979615bc1)" style="fill: #1f77b4"/>
   </g>
   <g id="patch_141">
    <path d="M 528.478139 252 
L 536.027697 252 
L 536.027697 251.987877 
L 528.478139 251.987877 
z
" clip-path="url(#p8979615bc1)" style="fill: #1f77b4"/>
   </g>
   <g id="patch_142">
    <path d="M 536.027697 252 
L 543.577255 252 
L 543.577255 252 
L 536.027697 252 
z
" clip-path="url(#p8979615bc1)" style="fill: #1f77b4"/>
   </g>
   <g id="patch_143">
    <path d="M 543.577255 252 
L 551.126814 252 
L 551.126814 252 
L 543.577255 252 
z
" clip-path="url(#p8979615bc1)" style="fill: #1f77b4"/>
   </g>
   <g id="patch_144">
    <path d="M 551.126814 252 
L 558.676372 252 
L 558.676372 252 
L 551.126814 252 
z
" clip-path="url(#p8979615bc1)" style="fill: #1f77b4"/>
   </g>
   <g id="patch_145">
    <path d="M 558.676372 252 
L 566.225931 252 
L 566.225931 252 
L 558.676372 252 
z
" clip-path="url(#p8979615bc1)" style="fill: #1f77b4"/>
   </g>
   <g id="patch_146">
    <path d="M 566.225931 252 
L 573.775489 252 
L 573.775489 252 
L 566.225931 252 
z
" clip-path="url(#p8979615bc1)" style="fill: #1f77b4"/>
   </g>
   <g id="patch_147">
    <path d="M 573.775489 252 
L 581.325047 252 
L 581.325047 252 
L 573.775489 252 
z
" clip-path="url(#p8979615bc1)" style="fill: #1f77b4"/>
   </g>
   <g id="patch_148">
    <path d="M 581.325047 252 
L 588.874606 252 
L 588.874606 251.987877 
L 581.325047 251.987877 
z
" clip-path="url(#p8979615bc1)" style="fill: #1f77b4"/>
   </g>
   <g id="patch_149">
    <path d="M 588.874606 252 
L 596.424164 252 
L 596.424164 252 
L 588.874606 252 
z
" clip-path="url(#p8979615bc1)" style="fill: #1f77b4"/>
   </g>
   <g id="patch_150">
    <path d="M 596.424164 252 
L 603.973723 252 
L 603.973723 252 
L 596.424164 252 
z
" clip-path="url(#p8979615bc1)" style="fill: #1f77b4"/>
   </g>
   <g id="patch_151">
    <path d="M 603.973723 252 
L 611.523281 252 
L 611.523281 252 
L 603.973723 252 
z
" clip-path="url(#p8979615bc1)" style="fill: #1f77b4"/>
   </g>
   <g id="patch_152">
    <path d="M 611.523281 252 
L 619.072839 252 
L 619.072839 251.987877 
L 611.523281 251.987877 
z
" clip-path="url(#p8979615bc1)" style="fill: #1f77b4"/>
   </g>
   <g id="matplotlib.axis_1">
    <g id="xtick_1">
     <g id="line2d_1">
      <defs>
       <path id="mbb6a25e13f" d="M 0 0 
L 0 3.5 
" style="stroke: #000000; stroke-width: 0.8"/>
      </defs>
      <g>
       <use xlink:href="#mbb6a25e13f" x="54" y="252" style="stroke: #000000; stroke-width: 0.8"/>
      </g>
     </g>
     <g id="text_1">
      <!-- −2.0 -->
      <g transform="translate(41.858594 266.598437)scale(0.1 -0.1)">
       <defs>
        <path id="DejaVuSans-2212" d="M 678 2272 
L 4684 2272 
L 4684 1741 
L 678 1741 
L 678 2272 
z
" transform="scale(0.015625)"/>
        <path id="DejaVuSans-32" d="M 1228 531 
L 3431 531 
L 3431 0 
L 469 0 
L 469 531 
Q 828 903 1448 1529 
Q 2069 2156 2228 2338 
Q 2531 2678 2651 2914 
Q 2772 3150 2772 3378 
Q 2772 3750 2511 3984 
Q 2250 4219 1831 4219 
Q 1534 4219 1204 4116 
Q 875 4013 500 3803 
L 500 4441 
Q 881 4594 1212 4672 
Q 1544 4750 1819 4750 
Q 2544 4750 2975 4387 
Q 3406 4025 3406 3419 
Q 3406 3131 3298 2873 
Q 3191 2616 2906 2266 
Q 2828 2175 2409 1742 
Q 1991 1309 1228 531 
z
" transform="scale(0.015625)"/>
        <path id="DejaVuSans-2e" d="M 684 794 
L 1344 794 
L 1344 0 
L 684 0 
L 684 794 
z
" transform="scale(0.015625)"/>
        <path id="DejaVuSans-30" d="M 2034 4250 
Q 1547 4250 1301 3770 
Q 1056 3291 1056 2328 
Q 1056 1369 1301 889 
Q 1547 409 2034 409 
Q 2525 409 2770 889 
Q 3016 1369 3016 2328 
Q 3016 3291 2770 3770 
Q 2525 4250 2034 4250 
z
M 2034 4750 
Q 2819 4750 3233 4129 
Q 3647 3509 3647 2328 
Q 3647 1150 3233 529 
Q 2819 -91 2034 -91 
Q 1250 -91 836 529 
Q 422 1150 422 2328 
Q 422 3509 836 4129 
Q 1250 4750 2034 4750 
z
" transform="scale(0.015625)"/>
       </defs>
       <use xlink:href="#DejaVuSans-2212"/>
       <use xlink:href="#DejaVuSans-32" x="83.789062"/>
       <use xlink:href="#DejaVuSans-2e" x="147.412109"/>
       <use xlink:href="#DejaVuSans-30" x="179.199219"/>
      </g>
     </g>
    </g>
    <g id="xtick_2">
     <g id="line2d_2">
      <g>
       <use xlink:href="#mbb6a25e13f" x="95.85" y="252" style="stroke: #000000; stroke-width: 0.8"/>
      </g>
     </g>
     <g id="text_2">
      <!-- −1.5 -->
      <g transform="translate(83.708594 266.598437)scale(0.1 -0.1)">
       <defs>
        <path id="DejaVuSans-31" d="M 794 531 
L 1825 531 
L 1825 4091 
L 703 3866 
L 703 4441 
L 1819 4666 
L 2450 4666 
L 2450 531 
L 3481 531 
L 3481 0 
L 794 0 
L 794 531 
z
" transform="scale(0.015625)"/>
        <path id="DejaVuSans-35" d="M 691 4666 
L 3169 4666 
L 3169 4134 
L 1269 4134 
L 1269 2991 
Q 1406 3038 1543 3061 
Q 1681 3084 1819 3084 
Q 2600 3084 3056 2656 
Q 3513 2228 3513 1497 
Q 3513 744 3044 326 
Q 2575 -91 1722 -91 
Q 1428 -91 1123 -41 
Q 819 9 494 109 
L 494 744 
Q 775 591 1075 516 
Q 1375 441 1709 441 
Q 2250 441 2565 725 
Q 2881 1009 2881 1497 
Q 2881 1984 2565 2268 
Q 2250 2553 1709 2553 
Q 1456 2553 1204 2497 
Q 953 2441 691 2322 
L 691 4666 
z
" transform="scale(0.015625)"/>
       </defs>
       <use xlink:href="#DejaVuSans-2212"/>
       <use xlink:href="#DejaVuSans-31" x="83.789062"/>
       <use xlink:href="#DejaVuSans-2e" x="147.412109"/>
       <use xlink:href="#DejaVuSans-35" x="179.199219"/>
      </g>
     </g>
    </g>
    <g id="xtick_3">
     <g id="line2d_3">
      <g>
       <use xlink:href="#mbb6a25e13f" x="137.7" y="252" style="stroke: #000000; stroke-width: 0.8"/>
      </g>
     </g>
     <g id="text_3">
      <!-- −1.0 -->
      <g transform="translate(125.558594 266.598437)scale(0.1 -0.1)">
       <use xlink:href="#DejaVuSans-2212"/>
       <use xlink:href="#DejaVuSans-31" x="83.789062"/>
       <use xlink:href="#DejaVuSans-2e" x="147.412109"/>
       <use xlink:href="#DejaVuSans-30" x="179.199219"/>
      </g>
     </g>
    </g>
    <g id="xtick_4">
     <g id="line2d_4">
      <g>
       <use xlink:href="#mbb6a25e13f" x="179.55" y="252" style="stroke: #000000; stroke-width: 0.8"/>
      </g>
     </g>
     <g id="text_4">
      <!-- −0.5 -->
      <g transform="translate(167.408594 266.598437)scale(0.1 -0.1)">
       <use xlink:href="#DejaVuSans-2212"/>
       <use xlink:href="#DejaVuSans-30" x="83.789062"/>
       <use xlink:href="#DejaVuSans-2e" x="147.412109"/>
       <use xlink:href="#DejaVuSans-35" x="179.199219"/>
      </g>
     </g>
    </g>
    <g id="xtick_5">
     <g id="line2d_5">
      <g>
       <use xlink:href="#mbb6a25e13f" x="221.4" y="252" style="stroke: #000000; stroke-width: 0.8"/>
      </g>
     </g>
     <g id="text_5">
      <!-- 0.0 -->
      <g transform="translate(213.448438 266.598437)scale(0.1 -0.1)">
       <use xlink:href="#DejaVuSans-30"/>
       <use xlink:href="#DejaVuSans-2e" x="63.623047"/>
       <use xlink:href="#DejaVuSans-30" x="95.410156"/>
      </g>
     </g>
    </g>
    <g id="xtick_6">
     <g id="line2d_6">
      <g>
       <use xlink:href="#mbb6a25e13f" x="263.25" y="252" style="stroke: #000000; stroke-width: 0.8"/>
      </g>
     </g>
     <g id="text_6">
      <!-- 0.5 -->
      <g transform="translate(255.298438 266.598437)scale(0.1 -0.1)">
       <use xlink:href="#DejaVuSans-30"/>
       <use xlink:href="#DejaVuSans-2e" x="63.623047"/>
       <use xlink:href="#DejaVuSans-35" x="95.410156"/>
      </g>
     </g>
    </g>
    <g id="xtick_7">
     <g id="line2d_7">
      <g>
       <use xlink:href="#mbb6a25e13f" x="305.1" y="252" style="stroke: #000000; stroke-width: 0.8"/>
      </g>
     </g>
     <g id="text_7">
      <!-- 1.0 -->
      <g transform="translate(297.148438 266.598437)scale(0.1 -0.1)">
       <use xlink:href="#DejaVuSans-31"/>
       <use xlink:href="#DejaVuSans-2e" x="63.623047"/>
       <use xlink:href="#DejaVuSans-30" x="95.410156"/>
      </g>
     </g>
    </g>
    <g id="xtick_8">
     <g id="line2d_8">
      <g>
       <use xlink:href="#mbb6a25e13f" x="346.95" y="252" style="stroke: #000000; stroke-width: 0.8"/>
      </g>
     </g>
     <g id="text_8">
      <!-- 1.5 -->
      <g transform="translate(338.998438 266.598437)scale(0.1 -0.1)">
       <use xlink:href="#DejaVuSans-31"/>
       <use xlink:href="#DejaVuSans-2e" x="63.623047"/>
       <use xlink:href="#DejaVuSans-35" x="95.410156"/>
      </g>
     </g>
    </g>
    <g id="xtick_9">
     <g id="line2d_9">
      <g>
       <use xlink:href="#mbb6a25e13f" x="388.8" y="252" style="stroke: #000000; stroke-width: 0.8"/>
      </g>
     </g>
     <g id="text_9">
      <!-- 2.0 -->
      <g transform="translate(380.848437 266.598437)scale(0.1 -0.1)">
       <use xlink:href="#DejaVuSans-32"/>
       <use xlink:href="#DejaVuSans-2e" x="63.623047"/>
       <use xlink:href="#DejaVuSans-30" x="95.410156"/>
      </g>
     </g>
    </g>
    <g id="text_10">
     <!-- log2(FC) -->
     <g transform="translate(200.327344 280.276563)scale(0.1 -0.1)">
      <defs>
       <path id="DejaVuSans-6c" d="M 603 4863 
L 1178 4863 
L 1178 0 
L 603 0 
L 603 4863 
z
" transform="scale(0.015625)"/>
       <path id="DejaVuSans-6f" d="M 1959 3097 
Q 1497 3097 1228 2736 
Q 959 2375 959 1747 
Q 959 1119 1226 758 
Q 1494 397 1959 397 
Q 2419 397 2687 759 
Q 2956 1122 2956 1747 
Q 2956 2369 2687 2733 
Q 2419 3097 1959 3097 
z
M 1959 3584 
Q 2709 3584 3137 3096 
Q 3566 2609 3566 1747 
Q 3566 888 3137 398 
Q 2709 -91 1959 -91 
Q 1206 -91 779 398 
Q 353 888 353 1747 
Q 353 2609 779 3096 
Q 1206 3584 1959 3584 
z
" transform="scale(0.015625)"/>
       <path id="DejaVuSans-67" d="M 2906 1791 
Q 2906 2416 2648 2759 
Q 2391 3103 1925 3103 
Q 1463 3103 1205 2759 
Q 947 2416 947 1791 
Q 947 1169 1205 825 
Q 1463 481 1925 481 
Q 2391 481 2648 825 
Q 2906 1169 2906 1791 
z
M 3481 434 
Q 3481 -459 3084 -895 
Q 2688 -1331 1869 -1331 
Q 1566 -1331 1297 -1286 
Q 1028 -1241 775 -1147 
L 775 -588 
Q 1028 -725 1275 -790 
Q 1522 -856 1778 -856 
Q 2344 -856 2625 -561 
Q 2906 -266 2906 331 
L 2906 616 
Q 2728 306 2450 153 
Q 2172 0 1784 0 
Q 1141 0 747 490 
Q 353 981 353 1791 
Q 353 2603 747 3093 
Q 1141 3584 1784 3584 
Q 2172 3584 2450 3431 
Q 2728 3278 2906 2969 
L 2906 3500 
L 3481 3500 
L 3481 434 
z
" transform="scale(0.015625)"/>
       <path id="DejaVuSans-28" d="M 1984 4856 
Q 1566 4138 1362 3434 
Q 1159 2731 1159 2009 
Q 1159 1288 1364 580 
Q 1569 -128 1984 -844 
L 1484 -844 
Q 1016 -109 783 600 
Q 550 1309 550 2009 
Q 550 2706 781 3412 
Q 1013 4119 1484 4856 
L 1984 4856 
z
" transform="scale(0.015625)"/>
       <path id="DejaVuSans-46" d="M 628 4666 
L 3309 4666 
L 3309 4134 
L 1259 4134 
L 1259 2759 
L 3109 2759 
L 3109 2228 
L 1259 2228 
L 1259 0 
L 628 0 
L 628 4666 
z
" transform="scale(0.015625)"/>
       <path id="DejaVuSans-43" d="M 4122 4306 
L 4122 3641 
Q 3803 3938 3442 4084 
Q 3081 4231 2675 4231 
Q 1875 4231 1450 3742 
Q 1025 3253 1025 2328 
Q 1025 1406 1450 917 
Q 1875 428 2675 428 
Q 3081 428 3442 575 
Q 3803 722 4122 1019 
L 4122 359 
Q 3791 134 3420 21 
Q 3050 -91 2638 -91 
Q 1578 -91 968 557 
Q 359 1206 359 2328 
Q 359 3453 968 4101 
Q 1578 4750 2638 4750 
Q 3056 4750 3426 4639 
Q 3797 4528 4122 4306 
z
" transform="scale(0.015625)"/>
       <path id="DejaVuSans-29" d="M 513 4856 
L 1013 4856 
Q 1481 4119 1714 3412 
Q 1947 2706 1947 2009 
Q 1947 1309 1714 600 
Q 1481 -109 1013 -844 
L 513 -844 
Q 928 -128 1133 580 
Q 1338 1288 1338 2009 
Q 1338 2731 1133 3434 
Q 928 4138 513 4856 
z
" transform="scale(0.015625)"/>
      </defs>
      <use xlink:href="#DejaVuSans-6c"/>
      <use xlink:href="#DejaVuSans-6f" x="27.783203"/>
      <use xlink:href="#DejaVuSans-67" x="88.964844"/>
      <use xlink:href="#DejaVuSans-32" x="152.441406"/>
      <use xlink:href="#DejaVuSans-28" x="216.064453"/>
      <use xlink:href="#DejaVuSans-46" x="255.078125"/>
      <use xlink:href="#DejaVuSans-43" x="312.597656"/>
      <use xlink:href="#DejaVuSans-29" x="382.421875"/>
     </g>
    </g>
   </g>
   <g id="matplotlib.axis_2">
    <g id="ytick_1">
     <g id="line2d_10">
      <defs>
       <path id="mf4d597082a" d="M 0 0 
L -3.5 0 
" style="stroke: #000000; stroke-width: 0.8"/>
      </defs>
      <g>
       <use xlink:href="#mf4d597082a" x="54" y="252" style="stroke: #000000; stroke-width: 0.8"/>
      </g>
     </g>
     <g id="text_11">
      <!-- 0 -->
      <g transform="translate(40.6375 255.799219)scale(0.1 -0.1)">
       <use xlink:href="#DejaVuSans-30"/>
      </g>
     </g>
    </g>
    <g id="ytick_2">
     <g id="line2d_11">
      <g>
       <use xlink:href="#mf4d597082a" x="54" y="227.753926" style="stroke: #000000; stroke-width: 0.8"/>
      </g>
     </g>
     <g id="text_12">
      <!-- 2000 -->
      <g transform="translate(21.55 231.553145)scale(0.1 -0.1)">
       <use xlink:href="#DejaVuSans-32"/>
       <use xlink:href="#DejaVuSans-30" x="63.623047"/>
       <use xlink:href="#DejaVuSans-30" x="127.246094"/>
       <use xlink:href="#DejaVuSans-30" x="190.869141"/>
      </g>
     </g>
    </g>
    <g id="ytick_3">
     <g id="line2d_12">
      <g>
       <use xlink:href="#mf4d597082a" x="54" y="203.507853" style="stroke: #000000; stroke-width: 0.8"/>
      </g>
     </g>
     <g id="text_13">
      <!-- 4000 -->
      <g transform="translate(21.55 207.307072)scale(0.1 -0.1)">
       <defs>
        <path id="DejaVuSans-34" d="M 2419 4116 
L 825 1625 
L 2419 1625 
L 2419 4116 
z
M 2253 4666 
L 3047 4666 
L 3047 1625 
L 3713 1625 
L 3713 1100 
L 3047 1100 
L 3047 0 
L 2419 0 
L 2419 1100 
L 313 1100 
L 313 1709 
L 2253 4666 
z
" transform="scale(0.015625)"/>
       </defs>
       <use xlink:href="#DejaVuSans-34"/>
       <use xlink:href="#DejaVuSans-30" x="63.623047"/>
       <use xlink:href="#DejaVuSans-30" x="127.246094"/>
       <use xlink:href="#DejaVuSans-30" x="190.869141"/>
      </g>
     </g>
    </g>
    <g id="ytick_4">
     <g id="line2d_13">
      <g>
       <use xlink:href="#mf4d597082a" x="54" y="179.261779" style="stroke: #000000; stroke-width: 0.8"/>
      </g>
     </g>
     <g id="text_14">
      <!-- 6000 -->
      <g transform="translate(21.55 183.060998)scale(0.1 -0.1)">
       <defs>
        <path id="DejaVuSans-36" d="M 2113 2584 
Q 1688 2584 1439 2293 
Q 1191 2003 1191 1497 
Q 1191 994 1439 701 
Q 1688 409 2113 409 
Q 2538 409 2786 701 
Q 3034 994 3034 1497 
Q 3034 2003 2786 2293 
Q 2538 2584 2113 2584 
z
M 3366 4563 
L 3366 3988 
Q 3128 4100 2886 4159 
Q 2644 4219 2406 4219 
Q 1781 4219 1451 3797 
Q 1122 3375 1075 2522 
Q 1259 2794 1537 2939 
Q 1816 3084 2150 3084 
Q 2853 3084 3261 2657 
Q 3669 2231 3669 1497 
Q 3669 778 3244 343 
Q 2819 -91 2113 -91 
Q 1303 -91 875 529 
Q 447 1150 447 2328 
Q 447 3434 972 4092 
Q 1497 4750 2381 4750 
Q 2619 4750 2861 4703 
Q 3103 4656 3366 4563 
z
" transform="scale(0.015625)"/>
       </defs>
       <use xlink:href="#DejaVuSans-36"/>
       <use xlink:href="#DejaVuSans-30" x="63.623047"/>
       <use xlink:href="#DejaVuSans-30" x="127.246094"/>
       <use xlink:href="#DejaVuSans-30" x="190.869141"/>
      </g>
     </g>
    </g>
    <g id="ytick_5">
     <g id="line2d_14">
      <g>
       <use xlink:href="#mf4d597082a" x="54" y="155.015706" style="stroke: #000000; stroke-width: 0.8"/>
      </g>
     </g>
     <g id="text_15">
      <!-- 8000 -->
      <g transform="translate(21.55 158.814925)scale(0.1 -0.1)">
       <defs>
        <path id="DejaVuSans-38" d="M 2034 2216 
Q 1584 2216 1326 1975 
Q 1069 1734 1069 1313 
Q 1069 891 1326 650 
Q 1584 409 2034 409 
Q 2484 409 2743 651 
Q 3003 894 3003 1313 
Q 3003 1734 2745 1975 
Q 2488 2216 2034 2216 
z
M 1403 2484 
Q 997 2584 770 2862 
Q 544 3141 544 3541 
Q 544 4100 942 4425 
Q 1341 4750 2034 4750 
Q 2731 4750 3128 4425 
Q 3525 4100 3525 3541 
Q 3525 3141 3298 2862 
Q 3072 2584 2669 2484 
Q 3125 2378 3379 2068 
Q 3634 1759 3634 1313 
Q 3634 634 3220 271 
Q 2806 -91 2034 -91 
Q 1263 -91 848 271 
Q 434 634 434 1313 
Q 434 1759 690 2068 
Q 947 2378 1403 2484 
z
M 1172 3481 
Q 1172 3119 1398 2916 
Q 1625 2713 2034 2713 
Q 2441 2713 2670 2916 
Q 2900 3119 2900 3481 
Q 2900 3844 2670 4047 
Q 2441 4250 2034 4250 
Q 1625 4250 1398 4047 
Q 1172 3844 1172 3481 
z
" transform="scale(0.015625)"/>
       </defs>
       <use xlink:href="#DejaVuSans-38"/>
       <use xlink:href="#DejaVuSans-30" x="63.623047"/>
       <use xlink:href="#DejaVuSans-30" x="127.246094"/>
       <use xlink:href="#DejaVuSans-30" x="190.869141"/>
      </g>
     </g>
    </g>
    <g id="ytick_6">
     <g id="line2d_15">
      <g>
       <use xlink:href="#mf4d597082a" x="54" y="130.769632" style="stroke: #000000; stroke-width: 0.8"/>
      </g>
     </g>
     <g id="text_16">
      <!-- 10000 -->
      <g transform="translate(15.1875 134.568851)scale(0.1 -0.1)">
       <use xlink:href="#DejaVuSans-31"/>
       <use xlink:href="#DejaVuSans-30" x="63.623047"/>
       <use xlink:href="#DejaVuSans-30" x="127.246094"/>
       <use xlink:href="#DejaVuSans-30" x="190.869141"/>
       <use xlink:href="#DejaVuSans-30" x="254.492188"/>
      </g>
     </g>
    </g>
    <g id="ytick_7">
     <g id="line2d_16">
      <g>
       <use xlink:href="#mf4d597082a" x="54" y="106.523559" style="stroke: #000000; stroke-width: 0.8"/>
      </g>
     </g>
     <g id="text_17">
      <!-- 12000 -->
      <g transform="translate(15.1875 110.322777)scale(0.1 -0.1)">
       <use xlink:href="#DejaVuSans-31"/>
       <use xlink:href="#DejaVuSans-32" x="63.623047"/>
       <use xlink:href="#DejaVuSans-30" x="127.246094"/>
       <use xlink:href="#DejaVuSans-30" x="190.869141"/>
       <use xlink:href="#DejaVuSans-30" x="254.492188"/>
      </g>
     </g>
    </g>
    <g id="ytick_8">
     <g id="line2d_17">
      <g>
       <use xlink:href="#mf4d597082a" x="54" y="82.277485" style="stroke: #000000; stroke-width: 0.8"/>
      </g>
     </g>
     <g id="text_18">
      <!-- 14000 -->
      <g transform="translate(15.1875 86.076704)scale(0.1 -0.1)">
       <use xlink:href="#DejaVuSans-31"/>
       <use xlink:href="#DejaVuSans-34" x="63.623047"/>
       <use xlink:href="#DejaVuSans-30" x="127.246094"/>
       <use xlink:href="#DejaVuSans-30" x="190.869141"/>
       <use xlink:href="#DejaVuSans-30" x="254.492188"/>
      </g>
     </g>
    </g>
    <g id="ytick_9">
     <g id="line2d_18">
      <g>
       <use xlink:href="#mf4d597082a" x="54" y="58.031412" style="stroke: #000000; stroke-width: 0.8"/>
      </g>
     </g>
     <g id="text_19">
      <!-- 16000 -->
      <g transform="translate(15.1875 61.83063)scale(0.1 -0.1)">
       <use xlink:href="#DejaVuSans-31"/>
       <use xlink:href="#DejaVuSans-36" x="63.623047"/>
       <use xlink:href="#DejaVuSans-30" x="127.246094"/>
       <use xlink:href="#DejaVuSans-30" x="190.869141"/>
       <use xlink:href="#DejaVuSans-30" x="254.492188"/>
      </g>
     </g>
    </g>
    <g id="text_20">
     <!-- count -->
     <g transform="translate(9.107812 157.38625)rotate(-90)scale(0.1 -0.1)">
      <defs>
       <path id="DejaVuSans-63" d="M 3122 3366 
L 3122 2828 
Q 2878 2963 2633 3030 
Q 2388 3097 2138 3097 
Q 1578 3097 1268 2742 
Q 959 2388 959 1747 
Q 959 1106 1268 751 
Q 1578 397 2138 397 
Q 2388 397 2633 464 
Q 2878 531 3122 666 
L 3122 134 
Q 2881 22 2623 -34 
Q 2366 -91 2075 -91 
Q 1284 -91 818 406 
Q 353 903 353 1747 
Q 353 2603 823 3093 
Q 1294 3584 2113 3584 
Q 2378 3584 2631 3529 
Q 2884 3475 3122 3366 
z
" transform="scale(0.015625)"/>
       <path id="DejaVuSans-75" d="M 544 1381 
L 544 3500 
L 1119 3500 
L 1119 1403 
Q 1119 906 1312 657 
Q 1506 409 1894 409 
Q 2359 409 2629 706 
Q 2900 1003 2900 1516 
L 2900 3500 
L 3475 3500 
L 3475 0 
L 2900 0 
L 2900 538 
Q 2691 219 2414 64 
Q 2138 -91 1772 -91 
Q 1169 -91 856 284 
Q 544 659 544 1381 
z
M 1991 3584 
L 1991 3584 
z
" transform="scale(0.015625)"/>
       <path id="DejaVuSans-6e" d="M 3513 2113 
L 3513 0 
L 2938 0 
L 2938 2094 
Q 2938 2591 2744 2837 
Q 2550 3084 2163 3084 
Q 1697 3084 1428 2787 
Q 1159 2491 1159 1978 
L 1159 0 
L 581 0 
L 581 3500 
L 1159 3500 
L 1159 2956 
Q 1366 3272 1645 3428 
Q 1925 3584 2291 3584 
Q 2894 3584 3203 3211 
Q 3513 2838 3513 2113 
z
" transform="scale(0.015625)"/>
       <path id="DejaVuSans-74" d="M 1172 4494 
L 1172 3500 
L 2356 3500 
L 2356 3053 
L 1172 3053 
L 1172 1153 
Q 1172 725 1289 603 
Q 1406 481 1766 481 
L 2356 481 
L 2356 0 
L 1766 0 
Q 1100 0 847 248 
Q 594 497 594 1153 
L 594 3053 
L 172 3053 
L 172 3500 
L 594 3500 
L 594 4494 
L 1172 4494 
z
" transform="scale(0.015625)"/>
      </defs>
      <use xlink:href="#DejaVuSans-63"/>
      <use xlink:href="#DejaVuSans-6f" x="54.980469"/>
      <use xlink:href="#DejaVuSans-75" x="116.162109"/>
      <use xlink:href="#DejaVuSans-6e" x="179.541016"/>
      <use xlink:href="#DejaVuSans-74" x="242.919922"/>
     </g>
    </g>
   </g>
   <g id="patch_153">
    <path d="M 54 252 
L 54 34.56 
" style="fill: none; stroke: #000000; stroke-width: 0.8; stroke-linejoin: miter; stroke-linecap: square"/>
   </g>
   <g id="patch_154">
    <path d="M 388.8 252 
L 388.8 34.56 
" style="fill: none; stroke: #000000; stroke-width: 0.8; stroke-linejoin: miter; stroke-linecap: square"/>
   </g>
   <g id="patch_155">
    <path d="M 54 252 
L 388.8 252 
" style="fill: none; stroke: #000000; stroke-width: 0.8; stroke-linejoin: miter; stroke-linecap: square"/>
   </g>
   <g id="patch_156">
    <path d="M 54 34.56 
L 388.8 34.56 
" style="fill: none; stroke: #000000; stroke-width: 0.8; stroke-linejoin: miter; stroke-linecap: square"/>
   </g>
  </g>
 </g>
 <defs>
  <clipPath id="p8979615bc1">
   <rect x="54" y="34.56" width="334.8" height="217.44"/>
  </clipPath>
 </defs>
</svg>
